<svg width="169" height="40" viewBox="0 0 169 40" fill="none" xmlns="http://www.w3.org/2000/svg">
<path d="M44.5245 5.14H47.6445V19H44.5245V13.12H39.2845V19H36.1645V5.14H39.2845V10.44H44.5245V5.14ZM50.152 13.82C50.152 12.8867 50.292 12.0733 50.572 11.38C50.8653 10.6733 51.2453 10.0867 51.712 9.62C52.1786 9.15333 52.712 8.8 53.312 8.56C53.9253 8.32 54.552 8.2 55.192 8.2C56.6853 8.2 57.8653 8.66 58.732 9.58C59.5986 10.4867 60.032 11.8267 60.032 13.6C60.032 13.7733 60.0253 13.9667 60.012 14.18C59.9986 14.38 59.9853 14.56 59.972 14.72H53.212C53.2786 15.3333 53.5653 15.82 54.072 16.18C54.5786 16.54 55.2586 16.72 56.112 16.72C56.6586 16.72 57.192 16.6733 57.712 16.58C58.2453 16.4733 58.6786 16.3467 59.012 16.2L59.412 18.62C59.252 18.7 59.0386 18.78 58.772 18.86C58.5053 18.94 58.2053 19.0067 57.872 19.06C57.552 19.1267 57.2053 19.18 56.832 19.22C56.4586 19.26 56.0853 19.28 55.712 19.28C54.7653 19.28 53.9386 19.14 53.232 18.86C52.5386 18.58 51.9586 18.2 51.492 17.72C51.0386 17.2267 50.6986 16.6467 50.472 15.98C50.2586 15.3133 50.152 14.5933 50.152 13.82ZM57.152 12.68C57.1386 12.4267 57.092 12.18 57.012 11.94C56.9453 11.7 56.832 11.4867 56.672 11.3C56.5253 11.1133 56.332 10.96 56.092 10.84C55.8653 10.72 55.5786 10.66 55.232 10.66C54.8986 10.66 54.612 10.72 54.372 10.84C54.132 10.9467 53.932 11.0933 53.772 11.28C53.612 11.4667 53.4853 11.6867 53.392 11.94C53.312 12.18 53.252 12.4267 53.212 12.68H57.152ZM68.6716 11.12C68.405 11.0533 68.0916 10.9867 67.7316 10.92C67.3716 10.84 66.985 10.8 66.5716 10.8C66.385 10.8 66.1583 10.82 65.8916 10.86C65.6383 10.8867 65.445 10.92 65.3116 10.96V19H62.3316V9.04C62.865 8.85333 63.4916 8.68 64.2116 8.52C64.945 8.34667 65.7583 8.26 66.6516 8.26C66.8116 8.26 67.005 8.27333 67.2316 8.3C67.4583 8.31333 67.685 8.34 67.9116 8.38C68.1383 8.40667 68.365 8.44667 68.5916 8.5C68.8183 8.54 69.0116 8.59333 69.1716 8.66L68.6716 11.12ZM70.7691 8.84C71.2758 8.69333 71.9291 8.56 72.7291 8.44C73.5291 8.30667 74.3691 8.24 75.2491 8.24C76.1425 8.24 76.8825 8.36 77.4691 8.6C78.0691 8.82667 78.5425 9.15333 78.8891 9.58C79.2358 10.0067 79.4825 10.5133 79.6291 11.1C79.7758 11.6867 79.8491 12.34 79.8491 13.06V19H76.8691V13.42C76.8691 12.46 76.7425 11.78 76.4891 11.38C76.2358 10.98 75.7625 10.78 75.0691 10.78C74.8558 10.78 74.6291 10.7933 74.3891 10.82C74.1491 10.8333 73.9358 10.8533 73.7491 10.88V19H70.7691V8.84ZM86.5665 16.92C86.8598 16.92 87.1398 16.9133 87.4065 16.9C87.6732 16.8867 87.8865 16.8667 88.0465 16.84V14.58C87.9265 14.5533 87.7465 14.5267 87.5065 14.5C87.2665 14.4733 87.0465 14.46 86.8465 14.46C86.5665 14.46 86.2998 14.48 86.0465 14.52C85.8065 14.5467 85.5932 14.6067 85.4065 14.7C85.2198 14.7933 85.0732 14.92 84.9665 15.08C84.8598 15.24 84.8065 15.44 84.8065 15.68C84.8065 16.1467 84.9598 16.4733 85.2665 16.66C85.5865 16.8333 86.0198 16.92 86.5665 16.92ZM86.3265 8.2C87.2065 8.2 87.9398 8.3 88.5265 8.5C89.1132 8.7 89.5798 8.98667 89.9265 9.36C90.2865 9.73333 90.5398 10.1867 90.6865 10.72C90.8332 11.2533 90.9065 11.8467 90.9065 12.5V18.7C90.4798 18.7933 89.8865 18.9 89.1265 19.02C88.3665 19.1533 87.4465 19.22 86.3665 19.22C85.6865 19.22 85.0665 19.16 84.5065 19.04C83.9598 18.92 83.4865 18.7267 83.0865 18.46C82.6865 18.18 82.3798 17.82 82.1665 17.38C81.9532 16.94 81.8465 16.4 81.8465 15.76C81.8465 15.1467 81.9665 14.6267 82.2065 14.2C82.4598 13.7733 82.7932 13.4333 83.2065 13.18C83.6198 12.9267 84.0932 12.7467 84.6265 12.64C85.1598 12.52 85.7132 12.46 86.2865 12.46C86.6732 12.46 87.0132 12.48 87.3065 12.52C87.6132 12.5467 87.8598 12.5867 88.0465 12.64V12.36C88.0465 11.8533 87.8932 11.4467 87.5865 11.14C87.2798 10.8333 86.7465 10.68 85.9865 10.68C85.4798 10.68 84.9798 10.72 84.4865 10.8C83.9932 10.8667 83.5665 10.9667 83.2065 11.1L82.8265 8.7C82.9998 8.64667 83.2132 8.59333 83.4665 8.54C83.7332 8.47333 84.0198 8.42 84.3265 8.38C84.6332 8.32667 84.9532 8.28667 85.2865 8.26C85.6332 8.22 85.9798 8.2 86.3265 8.2ZM93.6012 8.84C94.1078 8.69333 94.7612 8.56 95.5612 8.44C96.3612 8.30667 97.2012 8.24 98.0812 8.24C98.9745 8.24 99.7145 8.36 100.301 8.6C100.901 8.82667 101.375 9.15333 101.721 9.58C102.068 10.0067 102.315 10.5133 102.461 11.1C102.608 11.6867 102.681 12.34 102.681 13.06V19H99.7012V13.42C99.7012 12.46 99.5745 11.78 99.3212 11.38C99.0678 10.98 98.5945 10.78 97.9012 10.78C97.6878 10.78 97.4612 10.7933 97.2212 10.82C96.9812 10.8333 96.7678 10.8533 96.5812 10.88V19H93.6012V8.84ZM107.919 13.66C107.919 14.58 108.125 15.32 108.539 15.88C108.952 16.44 109.565 16.72 110.379 16.72C110.645 16.72 110.892 16.7133 111.119 16.7C111.345 16.6733 111.532 16.6467 111.679 16.62V11.2C111.492 11.08 111.245 10.98 110.939 10.9C110.645 10.82 110.345 10.78 110.039 10.78C108.625 10.78 107.919 11.74 107.919 13.66ZM114.659 18.66C114.392 18.74 114.085 18.82 113.739 18.9C113.392 18.9667 113.025 19.0267 112.639 19.08C112.265 19.1333 111.879 19.1733 111.479 19.2C111.092 19.24 110.719 19.26 110.359 19.26C109.492 19.26 108.719 19.1333 108.039 18.88C107.359 18.6267 106.785 18.2667 106.319 17.8C105.852 17.32 105.492 16.7467 105.239 16.08C104.999 15.4 104.879 14.64 104.879 13.8C104.879 12.9467 104.985 12.18 105.199 11.5C105.412 10.8067 105.719 10.22 106.119 9.74C106.519 9.26 107.005 8.89333 107.579 8.64C108.165 8.38667 108.832 8.26 109.579 8.26C109.992 8.26 110.359 8.3 110.679 8.38C111.012 8.46 111.345 8.57333 111.679 8.72V3.96L114.659 3.48V18.66ZM116.949 13.82C116.949 12.8867 117.089 12.0733 117.369 11.38C117.662 10.6733 118.042 10.0867 118.509 9.62C118.975 9.15333 119.509 8.8 120.109 8.56C120.722 8.32 121.349 8.2 121.989 8.2C123.482 8.2 124.662 8.66 125.529 9.58C126.395 10.4867 126.829 11.8267 126.829 13.6C126.829 13.7733 126.822 13.9667 126.809 14.18C126.795 14.38 126.782 14.56 126.769 14.72H120.009C120.075 15.3333 120.362 15.82 120.869 16.18C121.375 16.54 122.055 16.72 122.909 16.72C123.455 16.72 123.989 16.6733 124.509 16.58C125.042 16.4733 125.475 16.3467 125.809 16.2L126.209 18.62C126.049 18.7 125.835 18.78 125.569 18.86C125.302 18.94 125.002 19.0067 124.669 19.06C124.349 19.1267 124.002 19.18 123.629 19.22C123.255 19.26 122.882 19.28 122.509 19.28C121.562 19.28 120.735 19.14 120.029 18.86C119.335 18.58 118.755 18.2 118.289 17.72C117.835 17.2267 117.495 16.6467 117.269 15.98C117.055 15.3133 116.949 14.5933 116.949 13.82ZM123.949 12.68C123.935 12.4267 123.889 12.18 123.809 11.94C123.742 11.7 123.629 11.4867 123.469 11.3C123.322 11.1133 123.129 10.96 122.889 10.84C122.662 10.72 122.375 10.66 122.029 10.66C121.695 10.66 121.409 10.72 121.169 10.84C120.929 10.9467 120.729 11.0933 120.569 11.28C120.409 11.4667 120.282 11.6867 120.189 11.94C120.109 12.18 120.049 12.4267 120.009 12.68H123.949ZM132.149 16.86C132.695 16.86 133.082 16.8067 133.309 16.7C133.535 16.5933 133.649 16.3867 133.649 16.08C133.649 15.84 133.502 15.6333 133.209 15.46C132.915 15.2733 132.469 15.0667 131.869 14.84C131.402 14.6667 130.975 14.4867 130.589 14.3C130.215 14.1133 129.895 13.8933 129.629 13.64C129.362 13.3733 129.155 13.06 129.009 12.7C128.862 12.34 128.789 11.9067 128.789 11.4C128.789 10.4133 129.155 9.63333 129.889 9.06C130.622 8.48667 131.629 8.2 132.909 8.2C133.549 8.2 134.162 8.26 134.749 8.38C135.335 8.48667 135.802 8.60667 136.149 8.74L135.629 11.06C135.282 10.94 134.902 10.8333 134.489 10.74C134.089 10.6467 133.635 10.6 133.129 10.6C132.195 10.6 131.729 10.86 131.729 11.38C131.729 11.5 131.749 11.6067 131.789 11.7C131.829 11.7933 131.909 11.8867 132.029 11.98C132.149 12.06 132.309 12.1533 132.509 12.26C132.722 12.3533 132.989 12.46 133.309 12.58C133.962 12.82 134.502 13.06 134.929 13.3C135.355 13.5267 135.689 13.78 135.929 14.06C136.182 14.3267 136.355 14.6267 136.449 14.96C136.555 15.2933 136.609 15.68 136.609 16.12C136.609 17.16 136.215 17.9467 135.429 18.48C134.655 19.0133 133.555 19.28 132.129 19.28C131.195 19.28 130.415 19.2 129.789 19.04C129.175 18.88 128.749 18.7467 128.509 18.64L129.009 16.22C129.515 16.42 130.035 16.58 130.569 16.7C131.102 16.8067 131.629 16.86 132.149 16.86Z" fill="white"/>
<circle cx="143" cy="17" r="2" fill="#E300F6"/>
<path d="M11.8587 33V24.6H17.0547V25.428H12.8667V28.356H16.6947V29.172H12.8667V32.172H17.0547V33H11.8587ZM18.5721 33V27.048H19.4841L19.5441 28.116C19.7361 27.74 20.0121 27.444 20.3721 27.228C20.7321 27.012 21.1401 26.904 21.5961 26.904C22.3001 26.904 22.8601 27.12 23.2761 27.552C23.7001 27.976 23.9121 28.632 23.9121 29.52V33H22.9041V29.628C22.9041 28.388 22.3921 27.768 21.3681 27.768C20.8561 27.768 20.4281 27.956 20.0841 28.332C19.7481 28.7 19.5801 29.228 19.5801 29.916V33H18.5721ZM27.7913 31.128C27.4553 31.128 27.1473 31.084 26.8673 30.996L26.2673 31.56C26.3553 31.624 26.4633 31.68 26.5913 31.728C26.7273 31.768 26.9193 31.808 27.1673 31.848C27.4153 31.88 27.7633 31.916 28.2113 31.956C29.0113 32.012 29.5833 32.196 29.9273 32.508C30.2713 32.82 30.4433 33.228 30.4433 33.732C30.4433 34.076 30.3473 34.404 30.1553 34.716C29.9713 35.028 29.6833 35.284 29.2913 35.484C28.9073 35.684 28.4113 35.784 27.8033 35.784C27.2673 35.784 26.7913 35.712 26.3753 35.568C25.9593 35.432 25.6353 35.22 25.4033 34.932C25.1713 34.652 25.0553 34.296 25.0553 33.864C25.0553 33.64 25.1153 33.396 25.2353 33.132C25.3553 32.876 25.5793 32.632 25.9073 32.4C25.7313 32.328 25.5793 32.252 25.4513 32.172C25.3313 32.084 25.2193 31.988 25.1153 31.884V31.608L26.1353 30.6C25.6633 30.2 25.4273 29.672 25.4273 29.016C25.4273 28.624 25.5193 28.268 25.7033 27.948C25.8873 27.628 26.1553 27.376 26.5073 27.192C26.8593 27 27.2873 26.904 27.7913 26.904C28.1353 26.904 28.4473 26.952 28.7273 27.048H30.9233V27.804L29.8073 27.852C30.0393 28.188 30.1553 28.576 30.1553 29.016C30.1553 29.408 30.0593 29.764 29.8673 30.084C29.6833 30.404 29.4153 30.66 29.0633 30.852C28.7193 31.036 28.2953 31.128 27.7913 31.128ZM27.7913 30.3C28.2153 30.3 28.5513 30.192 28.7993 29.976C29.0553 29.752 29.1833 29.432 29.1833 29.016C29.1833 28.608 29.0553 28.296 28.7993 28.08C28.5513 27.856 28.2153 27.744 27.7913 27.744C27.3593 27.744 27.0153 27.856 26.7593 28.08C26.5113 28.296 26.3873 28.608 26.3873 29.016C26.3873 29.432 26.5113 29.752 26.7593 29.976C27.0153 30.192 27.3593 30.3 27.7913 30.3ZM26.0393 33.768C26.0393 34.168 26.2073 34.464 26.5433 34.656C26.8793 34.856 27.2993 34.956 27.8033 34.956C28.2993 34.956 28.6953 34.848 28.9913 34.632C29.2953 34.416 29.4473 34.128 29.4473 33.768C29.4473 33.512 29.3433 33.288 29.1353 33.096C28.9273 32.912 28.5433 32.804 27.9833 32.772C27.5433 32.74 27.1633 32.7 26.8433 32.652C26.5153 32.828 26.2993 33.016 26.1953 33.216C26.0913 33.424 26.0393 33.608 26.0393 33.768ZM34.502 33.144C33.934 33.144 33.43 33.016 32.99 32.76C32.55 32.496 32.202 32.132 31.946 31.668C31.698 31.204 31.574 30.656 31.574 30.024C31.574 29.4 31.698 28.856 31.946 28.392C32.194 27.92 32.538 27.556 32.978 27.3C33.426 27.036 33.942 26.904 34.526 26.904C35.102 26.904 35.598 27.036 36.014 27.3C36.438 27.556 36.762 27.896 36.986 28.32C37.21 28.744 37.322 29.2 37.322 29.688C37.322 29.776 37.318 29.864 37.31 29.952C37.31 30.04 37.31 30.14 37.31 30.252H32.57C32.594 30.708 32.698 31.088 32.882 31.392C33.074 31.688 33.31 31.912 33.59 32.064C33.878 32.216 34.182 32.292 34.502 32.292C34.918 32.292 35.266 32.196 35.546 32.004C35.826 31.812 36.03 31.552 36.158 31.224H37.154C36.994 31.776 36.686 32.236 36.23 32.604C35.782 32.964 35.206 33.144 34.502 33.144ZM34.502 27.756C34.022 27.756 33.594 27.904 33.218 28.2C32.85 28.488 32.638 28.912 32.582 29.472H36.326C36.302 28.936 36.118 28.516 35.774 28.212C35.43 27.908 35.006 27.756 34.502 27.756ZM38.6581 33V27.048H39.5701L39.6301 28.116C39.8221 27.74 40.0981 27.444 40.4581 27.228C40.8181 27.012 41.2261 26.904 41.6821 26.904C42.3861 26.904 42.9461 27.12 43.3621 27.552C43.7861 27.976 43.9981 28.632 43.9981 29.52V33H42.9901V29.628C42.9901 28.388 42.4781 27.768 41.4541 27.768C40.9421 27.768 40.5141 27.956 40.1701 28.332C39.8341 28.7 39.6661 29.228 39.6661 29.916V33H38.6581ZM45.5253 33V24.36H46.5333V28.068C46.7333 27.7 47.0173 27.416 47.3853 27.216C47.7533 27.008 48.1533 26.904 48.5853 26.904C49.2733 26.904 49.8253 27.12 50.2413 27.552C50.6573 27.976 50.8653 28.632 50.8653 29.52V33H49.8693V29.628C49.8693 28.388 49.3693 27.768 48.3693 27.768C47.8493 27.768 47.4133 27.956 47.0613 28.332C46.7093 28.7 46.5333 29.228 46.5333 29.916V33H45.5253ZM54.3725 33.144C53.8765 33.144 53.4645 33.06 53.1365 32.892C52.8085 32.724 52.5645 32.5 52.4045 32.22C52.2445 31.94 52.1645 31.636 52.1645 31.308C52.1645 30.7 52.3965 30.232 52.8605 29.904C53.3245 29.576 53.9565 29.412 54.7565 29.412H56.3645V29.34C56.3645 28.82 56.2285 28.428 55.9565 28.164C55.6845 27.892 55.3205 27.756 54.8645 27.756C54.4725 27.756 54.1325 27.856 53.8445 28.056C53.5645 28.248 53.3885 28.532 53.3165 28.908H52.2845C52.3245 28.476 52.4685 28.112 52.7165 27.816C52.9725 27.52 53.2885 27.296 53.6645 27.144C54.0405 26.984 54.4405 26.904 54.8645 26.904C55.6965 26.904 56.3205 27.128 56.7365 27.576C57.1605 28.016 57.3725 28.604 57.3725 29.34V33H56.4725L56.4125 31.932C56.2445 32.268 55.9965 32.556 55.6685 32.796C55.3485 33.028 54.9165 33.144 54.3725 33.144ZM54.5285 32.292C54.9125 32.292 55.2405 32.192 55.5125 31.992C55.7925 31.792 56.0045 31.532 56.1485 31.212C56.2925 30.892 56.3645 30.556 56.3645 30.204V30.192H54.8405C54.2485 30.192 53.8285 30.296 53.5805 30.504C53.3405 30.704 53.2205 30.956 53.2205 31.26C53.2205 31.572 53.3325 31.824 53.5565 32.016C53.7885 32.2 54.1125 32.292 54.5285 32.292ZM58.8846 33V27.048H59.7966L59.8806 28.188C60.0646 27.796 60.3446 27.484 60.7206 27.252C61.0966 27.02 61.5606 26.904 62.1126 26.904V27.96H61.8366C61.4846 27.96 61.1606 28.024 60.8646 28.152C60.5686 28.272 60.3326 28.48 60.1566 28.776C59.9806 29.072 59.8926 29.48 59.8926 30V33H58.8846ZM63.856 25.728C63.656 25.728 63.488 25.664 63.352 25.536C63.224 25.4 63.16 25.232 63.16 25.032C63.16 24.84 63.224 24.68 63.352 24.552C63.488 24.424 63.656 24.36 63.856 24.36C64.048 24.36 64.212 24.424 64.348 24.552C64.484 24.68 64.552 24.84 64.552 25.032C64.552 25.232 64.484 25.4 64.348 25.536C64.212 25.664 64.048 25.728 63.856 25.728ZM63.352 33V27.048H64.36V33H63.352ZM68.0951 33.144C67.5991 33.144 67.1871 33.06 66.8591 32.892C66.5311 32.724 66.2871 32.5 66.1271 32.22C65.9671 31.94 65.8871 31.636 65.8871 31.308C65.8871 30.7 66.1191 30.232 66.5831 29.904C67.0471 29.576 67.6791 29.412 68.4791 29.412H70.0871V29.34C70.0871 28.82 69.9511 28.428 69.6791 28.164C69.4071 27.892 69.0431 27.756 68.5871 27.756C68.1951 27.756 67.8551 27.856 67.5671 28.056C67.2871 28.248 67.1111 28.532 67.0391 28.908H66.0071C66.0471 28.476 66.1911 28.112 66.4391 27.816C66.6951 27.52 67.0111 27.296 67.3871 27.144C67.7631 26.984 68.1631 26.904 68.5871 26.904C69.4191 26.904 70.0431 27.128 70.4591 27.576C70.8831 28.016 71.0951 28.604 71.0951 29.34V33H70.1951L70.1351 31.932C69.9671 32.268 69.7191 32.556 69.3911 32.796C69.0711 33.028 68.6391 33.144 68.0951 33.144ZM68.2511 32.292C68.6351 32.292 68.9631 32.192 69.2351 31.992C69.5151 31.792 69.7271 31.532 69.8711 31.212C70.0151 30.892 70.0871 30.556 70.0871 30.204V30.192H68.5631C67.9711 30.192 67.5511 30.296 67.3031 30.504C67.0631 30.704 66.9431 30.956 66.9431 31.26C66.9431 31.572 67.0551 31.824 67.2791 32.016C67.5111 32.2 67.8351 32.292 68.2511 32.292ZM78.4591 33.144C77.8911 33.144 77.3871 33.016 76.9471 32.76C76.5071 32.496 76.1591 32.132 75.9031 31.668C75.6551 31.204 75.5311 30.656 75.5311 30.024C75.5311 29.4 75.6551 28.856 75.9031 28.392C76.1511 27.92 76.4951 27.556 76.9351 27.3C77.3831 27.036 77.8991 26.904 78.4831 26.904C79.0591 26.904 79.5551 27.036 79.9711 27.3C80.3951 27.556 80.7191 27.896 80.9431 28.32C81.1671 28.744 81.2791 29.2 81.2791 29.688C81.2791 29.776 81.2751 29.864 81.2671 29.952C81.2671 30.04 81.2671 30.14 81.2671 30.252H76.5271C76.5511 30.708 76.6551 31.088 76.8391 31.392C77.0311 31.688 77.2671 31.912 77.5471 32.064C77.8351 32.216 78.1391 32.292 78.4591 32.292C78.8751 32.292 79.2231 32.196 79.5031 32.004C79.7831 31.812 79.9871 31.552 80.1151 31.224H81.1111C80.9511 31.776 80.6431 32.236 80.1871 32.604C79.7391 32.964 79.1631 33.144 78.4591 33.144ZM78.4591 27.756C77.9791 27.756 77.5511 27.904 77.1751 28.2C76.8071 28.488 76.5951 28.912 76.5391 29.472H80.2831C80.2591 28.936 80.0751 28.516 79.7311 28.212C79.3871 27.908 78.9631 27.756 78.4591 27.756ZM85.8509 33V24.6H88.6109C89.2669 24.6 89.8069 24.708 90.2309 24.924C90.6549 25.14 90.9669 25.432 91.1669 25.8C91.3749 26.168 91.4789 26.584 91.4789 27.048C91.4789 27.504 91.3789 27.916 91.1789 28.284C90.9789 28.652 90.6669 28.948 90.2429 29.172C89.8189 29.388 89.2749 29.496 88.6109 29.496H86.8589V33H85.8509ZM86.8589 28.644H88.5869C89.2589 28.644 89.7349 28.504 90.0149 28.224C90.3029 27.936 90.4469 27.544 90.4469 27.048C90.4469 26.544 90.3029 26.152 90.0149 25.872C89.7349 25.584 89.2589 25.44 88.5869 25.44H86.8589V28.644ZM92.7401 33V27.048H93.6521L93.7361 28.188C93.9201 27.796 94.2001 27.484 94.5761 27.252C94.9521 27.02 95.4161 26.904 95.9681 26.904V27.96H95.6921C95.3401 27.96 95.0161 28.024 94.7201 28.152C94.4241 28.272 94.1881 28.48 94.0121 28.776C93.8361 29.072 93.7481 29.48 93.7481 30V33H92.7401ZM99.5888 33.144C99.0288 33.144 98.5248 33.016 98.0768 32.76C97.6288 32.504 97.2728 32.144 97.0088 31.68C96.7528 31.208 96.6248 30.656 96.6248 30.024C96.6248 29.392 96.7568 28.844 97.0208 28.38C97.2848 27.908 97.6408 27.544 98.0888 27.288C98.5448 27.032 99.0528 26.904 99.6128 26.904C100.173 26.904 100.677 27.032 101.125 27.288C101.573 27.544 101.925 27.908 102.181 28.38C102.445 28.844 102.577 29.392 102.577 30.024C102.577 30.656 102.445 31.208 102.181 31.68C101.917 32.144 101.557 32.504 101.101 32.76C100.653 33.016 100.149 33.144 99.5888 33.144ZM99.5888 32.28C99.9328 32.28 100.253 32.196 100.549 32.028C100.845 31.86 101.085 31.608 101.269 31.272C101.453 30.936 101.545 30.52 101.545 30.024C101.545 29.528 101.453 29.112 101.269 28.776C101.093 28.44 100.857 28.188 100.561 28.02C100.265 27.852 99.9488 27.768 99.6128 27.768C99.2688 27.768 98.9488 27.852 98.6528 28.02C98.3568 28.188 98.1168 28.44 97.9328 28.776C97.7488 29.112 97.6568 29.528 97.6568 30.024C97.6568 30.52 97.7488 30.936 97.9328 31.272C98.1168 31.608 98.3528 31.86 98.6408 32.028C98.9368 32.196 99.2528 32.28 99.5888 32.28ZM106.073 31.128C105.737 31.128 105.429 31.084 105.149 30.996L104.549 31.56C104.637 31.624 104.745 31.68 104.873 31.728C105.009 31.768 105.201 31.808 105.449 31.848C105.697 31.88 106.045 31.916 106.493 31.956C107.293 32.012 107.865 32.196 108.209 32.508C108.553 32.82 108.725 33.228 108.725 33.732C108.725 34.076 108.629 34.404 108.437 34.716C108.253 35.028 107.965 35.284 107.573 35.484C107.189 35.684 106.693 35.784 106.085 35.784C105.549 35.784 105.073 35.712 104.657 35.568C104.241 35.432 103.917 35.22 103.685 34.932C103.453 34.652 103.337 34.296 103.337 33.864C103.337 33.64 103.397 33.396 103.517 33.132C103.637 32.876 103.861 32.632 104.189 32.4C104.013 32.328 103.861 32.252 103.733 32.172C103.613 32.084 103.501 31.988 103.397 31.884V31.608L104.417 30.6C103.945 30.2 103.709 29.672 103.709 29.016C103.709 28.624 103.801 28.268 103.985 27.948C104.169 27.628 104.437 27.376 104.789 27.192C105.141 27 105.569 26.904 106.073 26.904C106.417 26.904 106.729 26.952 107.009 27.048H109.205V27.804L108.089 27.852C108.321 28.188 108.437 28.576 108.437 29.016C108.437 29.408 108.341 29.764 108.149 30.084C107.965 30.404 107.697 30.66 107.345 30.852C107.001 31.036 106.577 31.128 106.073 31.128ZM106.073 30.3C106.497 30.3 106.833 30.192 107.081 29.976C107.337 29.752 107.465 29.432 107.465 29.016C107.465 28.608 107.337 28.296 107.081 28.08C106.833 27.856 106.497 27.744 106.073 27.744C105.641 27.744 105.297 27.856 105.041 28.08C104.793 28.296 104.669 28.608 104.669 29.016C104.669 29.432 104.793 29.752 105.041 29.976C105.297 30.192 105.641 30.3 106.073 30.3ZM104.321 33.768C104.321 34.168 104.489 34.464 104.825 34.656C105.161 34.856 105.581 34.956 106.085 34.956C106.581 34.956 106.977 34.848 107.273 34.632C107.577 34.416 107.729 34.128 107.729 33.768C107.729 33.512 107.625 33.288 107.417 33.096C107.209 32.912 106.825 32.804 106.265 32.772C105.825 32.74 105.445 32.7 105.125 32.652C104.797 32.828 104.581 33.016 104.477 33.216C104.373 33.424 104.321 33.608 104.321 33.768ZM110.342 33V27.048H111.254L111.338 28.188C111.522 27.796 111.802 27.484 112.178 27.252C112.554 27.02 113.018 26.904 113.57 26.904V27.96H113.294C112.942 27.96 112.618 28.024 112.322 28.152C112.026 28.272 111.79 28.48 111.614 28.776C111.438 29.072 111.35 29.48 111.35 30V33H110.342ZM116.681 33.144C116.185 33.144 115.773 33.06 115.445 32.892C115.117 32.724 114.873 32.5 114.713 32.22C114.553 31.94 114.473 31.636 114.473 31.308C114.473 30.7 114.705 30.232 115.169 29.904C115.633 29.576 116.265 29.412 117.065 29.412H118.673V29.34C118.673 28.82 118.537 28.428 118.265 28.164C117.993 27.892 117.629 27.756 117.173 27.756C116.781 27.756 116.441 27.856 116.153 28.056C115.873 28.248 115.697 28.532 115.625 28.908H114.593C114.633 28.476 114.777 28.112 115.025 27.816C115.281 27.52 115.597 27.296 115.973 27.144C116.349 26.984 116.749 26.904 117.173 26.904C118.005 26.904 118.629 27.128 119.045 27.576C119.469 28.016 119.681 28.604 119.681 29.34V33H118.781L118.721 31.932C118.553 32.268 118.305 32.556 117.977 32.796C117.657 33.028 117.225 33.144 116.681 33.144ZM116.837 32.292C117.221 32.292 117.549 32.192 117.821 31.992C118.101 31.792 118.313 31.532 118.457 31.212C118.601 30.892 118.673 30.556 118.673 30.204V30.192H117.149C116.557 30.192 116.137 30.296 115.889 30.504C115.649 30.704 115.529 30.956 115.529 31.26C115.529 31.572 115.641 31.824 115.865 32.016C116.097 32.2 116.421 32.292 116.837 32.292ZM121.193 33V27.048H122.105L122.177 27.912C122.369 27.592 122.625 27.344 122.945 27.168C123.265 26.992 123.625 26.904 124.025 26.904C124.497 26.904 124.901 27 125.237 27.192C125.581 27.384 125.845 27.676 126.029 28.068C126.237 27.708 126.521 27.424 126.881 27.216C127.249 27.008 127.645 26.904 128.069 26.904C128.781 26.904 129.349 27.12 129.773 27.552C130.197 27.976 130.409 28.632 130.409 29.52V33H129.413V29.628C129.413 29.012 129.289 28.548 129.041 28.236C128.793 27.924 128.437 27.768 127.973 27.768C127.493 27.768 127.093 27.956 126.773 28.332C126.461 28.7 126.305 29.228 126.305 29.916V33H125.297V29.628C125.297 29.012 125.173 28.548 124.925 28.236C124.677 27.924 124.321 27.768 123.857 27.768C123.385 27.768 122.989 27.956 122.669 28.332C122.357 28.7 122.201 29.228 122.201 29.916V33H121.193ZM133.908 33.144C133.412 33.144 133 33.06 132.672 32.892C132.344 32.724 132.1 32.5 131.94 32.22C131.78 31.94 131.7 31.636 131.7 31.308C131.7 30.7 131.932 30.232 132.396 29.904C132.86 29.576 133.492 29.412 134.292 29.412H135.9V29.34C135.9 28.82 135.764 28.428 135.492 28.164C135.22 27.892 134.856 27.756 134.4 27.756C134.008 27.756 133.668 27.856 133.38 28.056C133.1 28.248 132.924 28.532 132.852 28.908H131.82C131.86 28.476 132.004 28.112 132.252 27.816C132.508 27.52 132.824 27.296 133.2 27.144C133.576 26.984 133.976 26.904 134.4 26.904C135.232 26.904 135.856 27.128 136.272 27.576C136.696 28.016 136.908 28.604 136.908 29.34V33H136.008L135.948 31.932C135.78 32.268 135.532 32.556 135.204 32.796C134.884 33.028 134.452 33.144 133.908 33.144ZM134.064 32.292C134.448 32.292 134.776 32.192 135.048 31.992C135.328 31.792 135.54 31.532 135.684 31.212C135.828 30.892 135.9 30.556 135.9 30.204V30.192H134.376C133.784 30.192 133.364 30.296 133.116 30.504C132.876 30.704 132.756 30.956 132.756 31.26C132.756 31.572 132.868 31.824 133.092 32.016C133.324 32.2 133.648 32.292 134.064 32.292ZM141.156 33.144C140.588 33.144 140.076 33.016 139.62 32.76C139.172 32.496 138.816 32.132 138.552 31.668C138.296 31.196 138.168 30.648 138.168 30.024C138.168 29.4 138.296 28.856 138.552 28.392C138.816 27.92 139.172 27.556 139.62 27.3C140.076 27.036 140.588 26.904 141.156 26.904C141.86 26.904 142.452 27.088 142.932 27.456C143.42 27.824 143.728 28.316 143.856 28.932H142.824C142.744 28.564 142.548 28.28 142.236 28.08C141.924 27.872 141.56 27.768 141.144 27.768C140.808 27.768 140.492 27.852 140.196 28.02C139.9 28.188 139.66 28.44 139.476 28.776C139.292 29.112 139.2 29.528 139.2 30.024C139.2 30.52 139.292 30.936 139.476 31.272C139.66 31.608 139.9 31.864 140.196 32.04C140.492 32.208 140.808 32.292 141.144 32.292C141.56 32.292 141.924 32.192 142.236 31.992C142.548 31.784 142.744 31.492 142.824 31.116H143.856C143.736 31.716 143.432 32.204 142.944 32.58C142.456 32.956 141.86 33.144 141.156 33.144ZM140.292 36.12V35.484H141.396C141.94 35.484 142.212 35.292 142.212 34.908C142.212 34.548 141.94 34.368 141.396 34.368H140.808V32.928H141.48V33.768C141.936 33.76 142.308 33.852 142.596 34.044C142.884 34.236 143.028 34.528 143.028 34.92C143.028 35.296 142.892 35.588 142.62 35.796C142.348 36.012 142.004 36.12 141.588 36.12H140.292ZM147.244 33.144C146.748 33.144 146.336 33.06 146.008 32.892C145.68 32.724 145.436 32.5 145.276 32.22C145.116 31.94 145.036 31.636 145.036 31.308C145.036 30.7 145.268 30.232 145.732 29.904C146.196 29.576 146.828 29.412 147.628 29.412H149.236V29.34C149.236 28.82 149.1 28.428 148.828 28.164C148.556 27.892 148.192 27.756 147.736 27.756C147.344 27.756 147.004 27.856 146.716 28.056C146.436 28.248 146.26 28.532 146.188 28.908H145.156C145.196 28.476 145.34 28.112 145.588 27.816C145.844 27.52 146.16 27.296 146.536 27.144C146.912 26.984 147.312 26.904 147.736 26.904C148.568 26.904 149.192 27.128 149.608 27.576C150.032 28.016 150.244 28.604 150.244 29.34V33H149.344L149.284 31.932C149.116 32.268 148.868 32.556 148.54 32.796C148.22 33.028 147.788 33.144 147.244 33.144ZM147.4 32.292C147.784 32.292 148.112 32.192 148.384 31.992C148.664 31.792 148.876 31.532 149.02 31.212C149.164 30.892 149.236 30.556 149.236 30.204V30.192H147.712C147.12 30.192 146.7 30.296 146.452 30.504C146.212 30.704 146.092 30.956 146.092 31.26C146.092 31.572 146.204 31.824 146.428 32.016C146.66 32.2 146.984 32.292 147.4 32.292ZM148.348 26.376C148.132 26.376 147.952 26.328 147.808 26.232C147.672 26.136 147.54 26.044 147.412 25.956C147.284 25.86 147.14 25.812 146.98 25.812C146.684 25.812 146.512 25.992 146.464 26.352H145.876C145.932 25.944 146.06 25.64 146.26 25.44C146.468 25.24 146.72 25.14 147.016 25.14C147.232 25.14 147.408 25.188 147.544 25.284C147.688 25.38 147.824 25.476 147.952 25.572C148.08 25.66 148.228 25.704 148.396 25.704C148.532 25.704 148.648 25.66 148.744 25.572C148.84 25.484 148.9 25.348 148.924 25.164H149.5C149.46 25.556 149.332 25.856 149.116 26.064C148.908 26.272 148.652 26.376 148.348 26.376ZM154.468 33.144C153.908 33.144 153.404 33.016 152.956 32.76C152.508 32.504 152.152 32.144 151.888 31.68C151.632 31.208 151.504 30.656 151.504 30.024C151.504 29.392 151.636 28.844 151.9 28.38C152.164 27.908 152.52 27.544 152.968 27.288C153.424 27.032 153.932 26.904 154.492 26.904C155.052 26.904 155.556 27.032 156.004 27.288C156.452 27.544 156.804 27.908 157.06 28.38C157.324 28.844 157.456 29.392 157.456 30.024C157.456 30.656 157.324 31.208 157.06 31.68C156.796 32.144 156.436 32.504 155.98 32.76C155.532 33.016 155.028 33.144 154.468 33.144ZM154.468 32.28C154.812 32.28 155.132 32.196 155.428 32.028C155.724 31.86 155.964 31.608 156.148 31.272C156.332 30.936 156.424 30.52 156.424 30.024C156.424 29.528 156.332 29.112 156.148 28.776C155.972 28.44 155.736 28.188 155.44 28.02C155.144 27.852 154.828 27.768 154.492 27.768C154.148 27.768 153.828 27.852 153.532 28.02C153.236 28.188 152.996 28.44 152.812 28.776C152.628 29.112 152.536 29.528 152.536 30.024C152.536 30.52 152.628 30.936 152.812 31.272C152.996 31.608 153.232 31.86 153.52 32.028C153.816 32.196 154.132 32.28 154.468 32.28Z" fill="#D3D3D3"/>
</svg>
