<svg width="169" height="40" viewBox="0 0 169 40" fill="none" xmlns="http://www.w3.org/2000/svg">
<path d="M34.4561 19V4.45455H37.0911V10.6122H43.8311V4.45455H46.4732V19H43.8311V12.821H37.0911V19H34.4561ZM54.0549 19.2131C52.9611 19.2131 52.0165 18.9858 51.2211 18.5312C50.4303 18.072 49.8219 17.4233 49.3958 16.5852C48.9696 15.7424 48.7566 14.7505 48.7566 13.6094C48.7566 12.4872 48.9696 11.5024 49.3958 10.6548C49.8266 9.80256 50.428 9.13968 51.1998 8.66619C51.9715 8.18797 52.8783 7.94886 53.9199 7.94886C54.5923 7.94886 55.2267 8.05777 55.8233 8.27557C56.4247 8.48864 56.955 8.82008 57.4142 9.26989C57.8783 9.7197 58.2428 10.2926 58.508 10.9886C58.7731 11.6799 58.9057 12.5038 58.9057 13.4602V14.2486H49.964V12.5156H56.4412C56.4365 12.0232 56.33 11.5852 56.1216 11.2017C55.9133 10.8134 55.6221 10.508 55.248 10.2855C54.8787 10.063 54.4479 9.9517 53.9554 9.9517C53.4299 9.9517 52.9682 10.0795 52.5705 10.3352C52.1728 10.5862 51.8626 10.9176 51.6401 11.3295C51.4223 11.7367 51.311 12.1842 51.3063 12.6719V14.1847C51.3063 14.8191 51.4223 15.3636 51.6543 15.8182C51.8863 16.268 52.2106 16.6136 52.6273 16.8551C53.044 17.0919 53.5317 17.2102 54.0904 17.2102C54.4644 17.2102 54.803 17.1581 55.106 17.054C55.409 16.9451 55.6718 16.7865 55.8944 16.5781C56.1169 16.3698 56.285 16.1117 56.3986 15.804L58.7992 16.0739C58.6477 16.7083 58.3588 17.2623 57.9327 17.7358C57.5113 18.2045 56.9715 18.5691 56.3134 18.8295C55.6552 19.0852 54.9024 19.2131 54.0549 19.2131ZM61.0808 19V8.09091H63.5737V9.90909H63.6873C63.8862 9.27936 64.2271 8.79403 64.71 8.45312C65.1977 8.10748 65.7541 7.93466 66.3791 7.93466C66.5211 7.93466 66.6797 7.94176 66.8549 7.95597C67.0349 7.96544 67.184 7.98201 67.3024 8.00568V10.3707C67.1935 10.3329 67.0207 10.2997 66.7839 10.2713C66.5519 10.2382 66.327 10.2216 66.1092 10.2216C65.6404 10.2216 65.219 10.3234 64.845 10.527C64.4757 10.7259 64.1845 11.0028 63.9714 11.358C63.7583 11.7131 63.6518 12.1226 63.6518 12.5866V19H61.0808ZM71.5815 12.608V19H69.0105V8.09091H71.4679V9.9446H71.5957C71.8467 9.33381 72.2467 8.84848 72.796 8.48864C73.35 8.12879 74.0342 7.94886 74.8485 7.94886C75.6014 7.94886 76.2572 8.10985 76.8159 8.43182C77.3793 8.75379 77.8149 9.22017 78.1227 9.83097C78.4352 10.4418 78.5891 11.1828 78.5843 12.054V19H76.0133V12.4517C76.0133 11.7225 75.8239 11.152 75.4451 10.7401C75.0711 10.3281 74.5526 10.1222 73.8897 10.1222C73.4399 10.1222 73.0398 10.2216 72.6895 10.4205C72.3438 10.6146 72.0716 10.8963 71.8727 11.2656C71.6786 11.6349 71.5815 12.0824 71.5815 12.608ZM84.3372 19.2202C83.6459 19.2202 83.0233 19.0971 82.4693 18.8509C81.92 18.5999 81.4844 18.2306 81.1625 17.7429C80.8452 17.2552 80.6866 16.6539 80.6866 15.9389C80.6866 15.3234 80.8002 14.8144 81.0275 14.4119C81.2548 14.0095 81.5649 13.6875 81.9579 13.446C82.3509 13.2045 82.7936 13.0223 83.286 12.8991C83.7832 12.7713 84.2969 12.679 84.8272 12.6222C85.4664 12.5559 85.9849 12.4967 86.3826 12.4446C86.7804 12.3878 87.0692 12.3026 87.2491 12.1889C87.4338 12.0705 87.5261 11.8883 87.5261 11.642V11.5994C87.5261 11.0644 87.3675 10.6501 87.0502 10.3565C86.733 10.063 86.2761 9.91619 85.6795 9.91619C85.0498 9.91619 84.5502 10.0535 84.1809 10.3281C83.8163 10.6027 83.5701 10.9271 83.4423 11.3011L81.0417 10.9602C81.2311 10.2973 81.5436 9.74337 81.9792 9.2983C82.4148 8.84848 82.9475 8.51231 83.5772 8.28977C84.207 8.0625 84.903 7.94886 85.6653 7.94886C86.1909 7.94886 86.7141 8.01042 87.2349 8.13352C87.7557 8.25663 88.2316 8.46023 88.6625 8.74432C89.0933 9.02367 89.439 9.40483 89.6994 9.88778C89.9645 10.3707 90.0971 10.9744 90.0971 11.6989V19H87.6255V17.5014H87.5403C87.3841 17.8045 87.1639 18.0885 86.8798 18.3537C86.6004 18.6141 86.2477 18.8248 85.8216 18.9858C85.4002 19.142 84.9054 19.2202 84.3372 19.2202ZM85.0048 17.331C85.5209 17.331 85.9683 17.2292 86.3471 17.0256C86.7259 16.8172 87.0171 16.5426 87.2207 16.2017C87.429 15.8608 87.5332 15.4891 87.5332 15.0866V13.8011C87.4527 13.8674 87.3154 13.929 87.1213 13.9858C86.9319 14.0426 86.7188 14.0923 86.4821 14.1349C86.2453 14.1776 86.0109 14.2154 85.7789 14.2486C85.5469 14.2817 85.3457 14.3101 85.1752 14.3338C84.7917 14.3859 84.4484 14.4711 84.1454 14.5895C83.8424 14.7079 83.6033 14.8736 83.4281 15.0866C83.2529 15.295 83.1653 15.5649 83.1653 15.8963C83.1653 16.3698 83.3381 16.7273 83.6838 16.9688C84.0294 17.2102 84.4698 17.331 85.0048 17.331ZM95.2534 12.608V19H92.6824V8.09091H95.1397V9.9446H95.2676C95.5185 9.33381 95.9186 8.84848 96.4679 8.48864C97.0218 8.12879 97.706 7.94886 98.5204 7.94886C99.2733 7.94886 99.929 8.10985 100.488 8.43182C101.051 8.75379 101.487 9.22017 101.795 9.83097C102.107 10.4418 102.261 11.1828 102.256 12.054V19H99.6852V12.4517C99.6852 11.7225 99.4958 11.152 99.117 10.7401C98.743 10.3281 98.2245 10.1222 97.5616 10.1222C97.1118 10.1222 96.7117 10.2216 96.3613 10.4205C96.0157 10.6146 95.7434 10.8963 95.5446 11.2656C95.3504 11.6349 95.2534 12.0824 95.2534 12.608ZM108.918 19.1918C108.061 19.1918 107.294 18.9716 106.617 18.5312C105.94 18.0909 105.405 17.4517 105.012 16.6136C104.619 15.7756 104.422 14.7576 104.422 13.5597C104.422 12.3475 104.621 11.3248 105.019 10.4915C105.421 9.65341 105.964 9.02131 106.645 8.59517C107.327 8.1643 108.087 7.94886 108.925 7.94886C109.564 7.94886 110.09 8.05777 110.502 8.27557C110.914 8.48864 111.241 8.74669 111.482 9.04972C111.724 9.34801 111.911 9.62973 112.043 9.89489H112.15V4.45455H114.728V19H112.199V17.2812H112.043C111.911 17.5464 111.719 17.8281 111.468 18.1264C111.217 18.42 110.885 18.6709 110.474 18.8793C110.062 19.0876 109.543 19.1918 108.918 19.1918ZM109.635 17.0824C110.18 17.0824 110.644 16.9356 111.028 16.642C111.411 16.3437 111.702 15.9295 111.901 15.3991C112.1 14.8688 112.199 14.2509 112.199 13.5455C112.199 12.84 112.1 12.2268 111.901 11.706C111.707 11.1851 111.418 10.7803 111.035 10.4915C110.656 10.2027 110.189 10.0582 109.635 10.0582C109.063 10.0582 108.584 10.2074 108.201 10.5057C107.817 10.804 107.528 11.2159 107.334 11.7415C107.14 12.267 107.043 12.8684 107.043 13.5455C107.043 14.2273 107.14 14.8357 107.334 15.3707C107.533 15.901 107.824 16.3201 108.208 16.6278C108.596 16.9309 109.072 17.0824 109.635 17.0824ZM122.297 19.2131C121.203 19.2131 120.259 18.9858 119.463 18.5312C118.673 18.072 118.064 17.4233 117.638 16.5852C117.212 15.7424 116.999 14.7505 116.999 13.6094C116.999 12.4872 117.212 11.5024 117.638 10.6548C118.069 9.80256 118.67 9.13968 119.442 8.66619C120.214 8.18797 121.12 7.94886 122.162 7.94886C122.834 7.94886 123.469 8.05777 124.066 8.27557C124.667 8.48864 125.197 8.82008 125.656 9.26989C126.12 9.7197 126.485 10.2926 126.75 10.9886C127.015 11.6799 127.148 12.5038 127.148 13.4602V14.2486H118.206V12.5156H124.683C124.679 12.0232 124.572 11.5852 124.364 11.2017C124.155 10.8134 123.864 10.508 123.49 10.2855C123.121 10.063 122.69 9.9517 122.198 9.9517C121.672 9.9517 121.21 10.0795 120.813 10.3352C120.415 10.5862 120.105 10.9176 119.882 11.3295C119.664 11.7367 119.553 12.1842 119.548 12.6719V14.1847C119.548 14.8191 119.664 15.3636 119.896 15.8182C120.128 16.268 120.453 16.6136 120.869 16.8551C121.286 17.0919 121.774 17.2102 122.333 17.2102C122.707 17.2102 123.045 17.1581 123.348 17.054C123.651 16.9451 123.914 16.7865 124.137 16.5781C124.359 16.3698 124.527 16.1117 124.641 15.804L127.041 16.0739C126.89 16.7083 126.601 17.2623 126.175 17.7358C125.753 18.2045 125.214 18.5691 124.556 18.8295C123.897 19.0852 123.145 19.2131 122.297 19.2131ZM137.945 10.9744L135.601 11.2301C135.535 10.9934 135.419 10.7708 135.253 10.5625C135.092 10.3542 134.875 10.1861 134.6 10.0582C134.325 9.9304 133.989 9.86648 133.591 9.86648C133.056 9.86648 132.607 9.98248 132.242 10.2145C131.882 10.4465 131.705 10.7472 131.709 11.1165C131.705 11.4337 131.821 11.6918 132.057 11.8906C132.299 12.0895 132.697 12.2528 133.251 12.3807L135.111 12.7784C136.144 13.0009 136.911 13.3537 137.412 13.8366C137.919 14.3196 138.175 14.9517 138.18 15.733C138.175 16.4195 137.974 17.0256 137.576 17.5511C137.183 18.072 136.636 18.4792 135.935 18.7727C135.234 19.0663 134.43 19.2131 133.52 19.2131C132.185 19.2131 131.11 18.9337 130.296 18.375C129.482 17.8116 128.996 17.0279 128.84 16.0241L131.347 15.7827C131.461 16.2751 131.702 16.6468 132.072 16.8977C132.441 17.1487 132.921 17.2741 133.513 17.2741C134.124 17.2741 134.614 17.1487 134.983 16.8977C135.358 16.6468 135.545 16.3366 135.545 15.9673C135.545 15.6548 135.424 15.3968 135.182 15.1932C134.946 14.9896 134.576 14.8333 134.074 14.7244L132.214 14.3338C131.167 14.116 130.393 13.7491 129.891 13.233C129.389 12.7121 129.141 12.054 129.145 11.2585C129.141 10.5862 129.323 10.0038 129.692 9.51136C130.066 9.0142 130.585 8.63068 131.248 8.3608C131.915 8.08617 132.685 7.94886 133.556 7.94886C134.834 7.94886 135.84 8.22112 136.574 8.76562C137.313 9.31013 137.77 10.0464 137.945 10.9744Z" fill="white"/>
<circle cx="143" cy="17" r="2" fill="#E300F6"/>
<path d="M9.27362 33V24.2727H14.5407V25.2102H10.3304V28.1591H14.2679V29.0966H10.3304V32.0625H14.6088V33H9.27362ZM17.3148 29.0625V33H16.3091V26.4545H17.2807V27.4773H17.3659C17.5194 27.1449 17.7523 26.8778 18.0648 26.6761C18.3773 26.4716 18.7807 26.3693 19.275 26.3693C19.7182 26.3693 20.106 26.4602 20.4384 26.642C20.7708 26.821 21.0293 27.0938 21.214 27.4602C21.3986 27.8239 21.4909 28.2841 21.4909 28.8409V33H20.4853V28.9091C20.4853 28.3949 20.3517 27.9943 20.0847 27.7074C19.8176 27.4176 19.4512 27.2727 18.9853 27.2727C18.6642 27.2727 18.3773 27.3423 18.1245 27.4815C17.8745 27.6207 17.677 27.8239 17.5321 28.0909C17.3873 28.358 17.3148 28.6818 17.3148 29.0625ZM25.9707 35.5909C25.4849 35.5909 25.0673 35.5284 24.7179 35.4034C24.3684 35.2812 24.0772 35.1193 23.8443 34.9176C23.6142 34.7188 23.4309 34.5057 23.2946 34.2784L24.0957 33.7159C24.1866 33.8352 24.3017 33.9716 24.4409 34.125C24.5801 34.2812 24.7704 34.4162 25.0119 34.5298C25.2562 34.6463 25.5758 34.7045 25.9707 34.7045C26.4991 34.7045 26.9352 34.5767 27.2789 34.321C27.6227 34.0653 27.7946 33.6648 27.7946 33.1193V31.7898H27.7093C27.6355 31.9091 27.5304 32.0568 27.394 32.233C27.2605 32.4062 27.0673 32.5611 26.8145 32.6974C26.5645 32.831 26.2264 32.8977 25.8002 32.8977C25.2718 32.8977 24.7974 32.7727 24.377 32.5227C23.9593 32.2727 23.6284 31.9091 23.3841 31.4318C23.1426 30.9545 23.0218 30.375 23.0218 29.6932C23.0218 29.0227 23.1397 28.4389 23.3755 27.9418C23.6113 27.4418 23.9395 27.0554 24.3599 26.7827C24.7804 26.5071 25.2662 26.3693 25.8173 26.3693C26.2434 26.3693 26.5815 26.4403 26.8315 26.5824C27.0843 26.7216 27.2775 26.8807 27.411 27.0597C27.5474 27.2358 27.6525 27.3807 27.7264 27.4943H27.8287V26.4545H28.8002V33.1875C28.8002 33.75 28.6724 34.2074 28.4167 34.5597C28.1639 34.9148 27.823 35.1747 27.394 35.3395C26.9679 35.5071 26.4934 35.5909 25.9707 35.5909ZM25.9366 31.9943C26.34 31.9943 26.6809 31.902 26.9593 31.7173C27.2377 31.5327 27.4494 31.267 27.5943 30.9205C27.7392 30.5739 27.8116 30.1591 27.8116 29.6761C27.8116 29.2045 27.7406 28.7884 27.5985 28.4276C27.4565 28.0668 27.2463 27.7841 26.9679 27.5795C26.6895 27.375 26.3457 27.2727 25.9366 27.2727C25.5105 27.2727 25.1554 27.3807 24.8713 27.5966C24.59 27.8125 24.3784 28.1023 24.2363 28.4659C24.0971 28.8295 24.0275 29.233 24.0275 29.6761C24.0275 30.1307 24.0985 30.5327 24.2406 30.8821C24.3855 31.2287 24.5985 31.5014 24.8798 31.7003C25.1639 31.8963 25.5162 31.9943 25.9366 31.9943ZM33.3855 33.1364C32.7548 33.1364 32.2108 32.9972 31.7534 32.7188C31.2988 32.4375 30.948 32.0455 30.7008 31.5426C30.4565 31.0369 30.3343 30.4489 30.3343 29.7784C30.3343 29.108 30.4565 28.517 30.7008 28.0057C30.948 27.4915 31.2917 27.0909 31.7321 26.804C32.1752 26.5142 32.6923 26.3693 33.2832 26.3693C33.6241 26.3693 33.9608 26.4261 34.2931 26.5398C34.6255 26.6534 34.9281 26.8381 35.2008 27.0938C35.4735 27.3466 35.6909 27.6818 35.8528 28.0994C36.0147 28.517 36.0957 29.0312 36.0957 29.642V30.0682H31.0502V29.1989H35.073C35.073 28.8295 34.9991 28.5 34.8514 28.2102C34.7065 27.9205 34.4991 27.6918 34.2292 27.5241C33.9622 27.3565 33.6468 27.2727 33.2832 27.2727C32.8826 27.2727 32.536 27.3722 32.2434 27.571C31.9537 27.767 31.7306 28.0227 31.5744 28.3381C31.4181 28.6534 31.34 28.9915 31.34 29.3523V29.9318C31.34 30.4261 31.4252 30.8452 31.5957 31.1889C31.769 31.5298 32.0091 31.7898 32.3159 31.9688C32.6227 32.1449 32.9792 32.233 33.3855 32.233C33.6497 32.233 33.8883 32.196 34.1014 32.1222C34.3173 32.0455 34.5034 31.9318 34.6596 31.7812C34.8159 31.6278 34.9366 31.4375 35.0218 31.2102L35.9934 31.483C35.8912 31.8125 35.7193 32.1023 35.4778 32.3523C35.2363 32.5994 34.938 32.7926 34.5829 32.9318C34.2278 33.0682 33.8287 33.1364 33.3855 33.1364ZM38.6312 29.0625V33H37.6255V26.4545H38.5971V27.4773H38.6824C38.8358 27.1449 39.0687 26.8778 39.3812 26.6761C39.6937 26.4716 40.0971 26.3693 40.5914 26.3693C41.0346 26.3693 41.4224 26.4602 41.7548 26.642C42.0872 26.821 42.3457 27.0938 42.5304 27.4602C42.715 27.8239 42.8074 28.2841 42.8074 28.8409V33H41.8017V28.9091C41.8017 28.3949 41.6681 27.9943 41.4011 27.7074C41.1341 27.4176 40.7676 27.2727 40.3017 27.2727C39.9806 27.2727 39.6937 27.3423 39.4409 27.4815C39.1909 27.6207 38.9934 27.8239 38.8485 28.0909C38.7037 28.358 38.6312 28.6818 38.6312 29.0625ZM45.6507 29.0625V33H44.6451V24.2727H45.6507V27.4773H45.736C45.8894 27.1392 46.1195 26.8707 46.4263 26.6719C46.736 26.4702 47.1479 26.3693 47.6621 26.3693C48.1081 26.3693 48.4988 26.4588 48.834 26.6378C49.1692 26.8139 49.4292 27.0852 49.6138 27.4517C49.8013 27.8153 49.8951 28.2784 49.8951 28.8409V33H48.8894V28.9091C48.8894 28.3892 48.7544 27.9872 48.4846 27.7031C48.2175 27.4162 47.8468 27.2727 47.3723 27.2727C47.0428 27.2727 46.7473 27.3423 46.486 27.4815C46.2275 27.6207 46.0229 27.8239 45.8723 28.0909C45.7246 28.358 45.6507 28.6818 45.6507 29.0625ZM53.661 33.1534C53.2463 33.1534 52.8699 33.0753 52.5318 32.919C52.1937 32.7599 51.9252 32.5312 51.7264 32.233C51.5275 31.9318 51.4281 31.5682 51.4281 31.142C51.4281 30.767 51.502 30.4631 51.6497 30.2301C51.7974 29.9943 51.9949 29.8097 52.242 29.6761C52.4892 29.5426 52.7619 29.4432 53.0602 29.3778C53.3613 29.3097 53.6639 29.2557 53.9679 29.2159C54.3656 29.1648 54.688 29.1264 54.9352 29.1009C55.1852 29.0724 55.367 29.0256 55.4806 28.9602C55.5971 28.8949 55.6554 28.7812 55.6554 28.6193V28.5852C55.6554 28.1648 55.5403 27.8381 55.3102 27.6051C55.0829 27.3722 54.7377 27.2557 54.2747 27.2557C53.7946 27.2557 53.4181 27.3608 53.1454 27.571C52.8727 27.7812 52.6809 28.0057 52.5701 28.2443L51.6156 27.9034C51.786 27.5057 52.0133 27.196 52.2974 26.9744C52.5843 26.75 52.8968 26.5937 53.2349 26.5057C53.5758 26.4148 53.911 26.3693 54.2406 26.3693C54.4508 26.3693 54.6923 26.3949 54.965 26.446C55.2406 26.4943 55.5062 26.5952 55.7619 26.7486C56.0204 26.902 56.2349 27.1335 56.4054 27.4432C56.5758 27.7528 56.661 28.1676 56.661 28.6875V33H55.6554V32.1136H55.6042C55.536 32.2557 55.4224 32.4077 55.2633 32.5696C55.1042 32.7315 54.8926 32.8693 54.6284 32.983C54.3642 33.0966 54.0417 33.1534 53.661 33.1534ZM53.8145 32.25C54.2122 32.25 54.5474 32.1719 54.8201 32.0156C55.0957 31.8594 55.3031 31.6577 55.4423 31.4105C55.5843 31.1634 55.6554 30.9034 55.6554 30.6307V29.7102C55.6127 29.7614 55.519 29.8082 55.3741 29.8509C55.2321 29.8906 55.0673 29.9261 54.8798 29.9574C54.6951 29.9858 54.5147 30.0114 54.3386 30.0341C54.1653 30.054 54.0247 30.071 53.9167 30.0852C53.6554 30.1193 53.411 30.1747 53.1838 30.2514C52.9593 30.3253 52.7775 30.4375 52.6383 30.5881C52.502 30.7358 52.4338 30.9375 52.4338 31.1932C52.4338 31.5426 52.563 31.8068 52.8216 31.9858C53.0829 32.1619 53.4139 32.25 53.8145 32.25ZM58.4966 33V26.4545H59.4682V27.4432H59.5364C59.6557 27.1193 59.8716 26.8565 60.1841 26.6548C60.4966 26.4531 60.8489 26.3523 61.2409 26.3523C61.3148 26.3523 61.4071 26.3537 61.5179 26.3565C61.6287 26.3594 61.7125 26.3636 61.7694 26.3693V27.392C61.7353 27.3835 61.6571 27.3707 61.535 27.3537C61.4157 27.3338 61.2892 27.3239 61.1557 27.3239C60.8375 27.3239 60.5534 27.3906 60.3034 27.5241C60.0563 27.6548 59.8603 27.8366 59.7154 28.0696C59.5733 28.2997 59.5023 28.5625 59.5023 28.858V33H58.4966ZM62.9615 33V26.4545H63.9672V33H62.9615ZM63.4728 25.3636C63.2768 25.3636 63.1078 25.2969 62.9657 25.1634C62.8265 25.0298 62.7569 24.8693 62.7569 24.6818C62.7569 24.4943 62.8265 24.3338 62.9657 24.2003C63.1078 24.0668 63.2768 24 63.4728 24C63.6689 24 63.8365 24.0668 63.9757 24.2003C64.1177 24.3338 64.1887 24.4943 64.1887 24.6818C64.1887 24.8693 64.1177 25.0298 63.9757 25.1634C63.8365 25.2969 63.6689 25.3636 63.4728 25.3636ZM67.7353 33.1534C67.3205 33.1534 66.9441 33.0753 66.606 32.919C66.2679 32.7599 65.9995 32.5312 65.8006 32.233C65.6017 31.9318 65.5023 31.5682 65.5023 31.142C65.5023 30.767 65.5762 30.4631 65.7239 30.2301C65.8716 29.9943 66.0691 29.8097 66.3162 29.6761C66.5634 29.5426 66.8361 29.4432 67.1344 29.3778C67.4355 29.3097 67.7381 29.2557 68.0421 29.2159C68.4398 29.1648 68.7623 29.1264 69.0094 29.1009C69.2594 29.0724 69.4412 29.0256 69.5549 28.9602C69.6713 28.8949 69.7296 28.7812 69.7296 28.6193V28.5852C69.7296 28.1648 69.6145 27.8381 69.3844 27.6051C69.1571 27.3722 68.812 27.2557 68.3489 27.2557C67.8688 27.2557 67.4924 27.3608 67.2196 27.571C66.9469 27.7812 66.7551 28.0057 66.6444 28.2443L65.6898 27.9034C65.8603 27.5057 66.0875 27.196 66.3716 26.9744C66.6586 26.75 66.9711 26.5937 67.3091 26.5057C67.65 26.4148 67.9853 26.3693 68.3148 26.3693C68.525 26.3693 68.7665 26.3949 69.0392 26.446C69.3148 26.4943 69.5804 26.5952 69.8361 26.7486C70.0946 26.902 70.3091 27.1335 70.4796 27.4432C70.65 27.7528 70.7353 28.1676 70.7353 28.6875V33H69.7296V32.1136H69.6784C69.6103 32.2557 69.4966 32.4077 69.3375 32.5696C69.1784 32.7315 68.9668 32.8693 68.7026 32.983C68.4384 33.0966 68.1159 33.1534 67.7353 33.1534ZM67.8887 32.25C68.2864 32.25 68.6216 32.1719 68.8944 32.0156C69.1699 31.8594 69.3773 31.6577 69.5165 31.4105C69.6586 31.1634 69.7296 30.9034 69.7296 30.6307V29.7102C69.687 29.7614 69.5932 29.8082 69.4483 29.8509C69.3063 29.8906 69.1415 29.9261 68.954 29.9574C68.7694 29.9858 68.589 30.0114 68.4128 30.0341C68.2395 30.054 68.0989 30.071 67.9909 30.0852C67.7296 30.1193 67.4853 30.1747 67.258 30.2514C67.0336 30.3253 66.8517 30.4375 66.7125 30.5881C66.5762 30.7358 66.508 30.9375 66.508 31.1932C66.508 31.5426 66.6373 31.8068 66.8958 31.9858C67.1571 32.1619 67.4881 32.25 67.8887 32.25ZM78.6902 33.1364C78.0595 33.1364 77.5154 32.9972 77.0581 32.7188C76.6035 32.4375 76.2527 32.0455 76.0055 31.5426C75.7612 31.0369 75.639 30.4489 75.639 29.7784C75.639 29.108 75.7612 28.517 76.0055 28.0057C76.2527 27.4915 76.5964 27.0909 77.0368 26.804C77.4799 26.5142 77.997 26.3693 78.5879 26.3693C78.9288 26.3693 79.2654 26.4261 79.5978 26.5398C79.9302 26.6534 80.2328 26.8381 80.5055 27.0938C80.7782 27.3466 80.9956 27.6818 81.1575 28.0994C81.3194 28.517 81.4004 29.0312 81.4004 29.642V30.0682H76.3549V29.1989H80.3777C80.3777 28.8295 80.3038 28.5 80.1561 28.2102C80.0112 27.9205 79.8038 27.6918 79.5339 27.5241C79.2669 27.3565 78.9515 27.2727 78.5879 27.2727C78.1873 27.2727 77.8407 27.3722 77.5481 27.571C77.2583 27.767 77.0353 28.0227 76.8791 28.3381C76.7228 28.6534 76.6447 28.9915 76.6447 29.3523V29.9318C76.6447 30.4261 76.7299 30.8452 76.9004 31.1889C77.0737 31.5298 77.3137 31.7898 77.6206 31.9688C77.9274 32.1449 78.2839 32.233 78.6902 32.233C78.9544 32.233 79.193 32.196 79.4061 32.1222C79.622 32.0455 79.8081 31.9318 79.9643 31.7812C80.1206 31.6278 80.2413 31.4375 80.3265 31.2102L81.2981 31.483C81.1958 31.8125 81.024 32.1023 80.7825 32.3523C80.541 32.5994 80.2427 32.7926 79.8876 32.9318C79.5325 33.0682 79.1333 33.1364 78.6902 33.1364ZM86.4416 33V24.2727H89.3904C90.0751 24.2727 90.6348 24.3963 91.0694 24.6435C91.5069 24.8878 91.8308 25.2188 92.041 25.6364C92.2512 26.054 92.3564 26.5199 92.3564 27.0341C92.3564 27.5483 92.2512 28.0156 92.041 28.4361C91.8336 28.8565 91.5126 29.1918 91.0779 29.4418C90.6433 29.6889 90.0865 29.8125 89.4075 29.8125H87.2939V28.875H89.3734C89.8422 28.875 90.2186 28.794 90.5027 28.6321C90.7868 28.4702 90.9927 28.2514 91.1206 27.9759C91.2512 27.6974 91.3166 27.3835 91.3166 27.0341C91.3166 26.6847 91.2512 26.3722 91.1206 26.0966C90.9927 25.821 90.7853 25.6051 90.4984 25.4489C90.2115 25.2898 89.8308 25.2102 89.3564 25.2102H87.4984V33H86.4416ZM93.9224 33V26.4545H94.894V27.4432H94.9622C95.0815 27.1193 95.2974 26.8565 95.6099 26.6548C95.9224 26.4531 96.2747 26.3523 96.6667 26.3523C96.7406 26.3523 96.8329 26.3537 96.9437 26.3565C97.0545 26.3594 97.1383 26.3636 97.1951 26.3693V27.392C97.161 27.3835 97.0829 27.3707 96.9608 27.3537C96.8414 27.3338 96.715 27.3239 96.5815 27.3239C96.2633 27.3239 95.9792 27.3906 95.7292 27.5241C95.4821 27.6548 95.286 27.8366 95.1412 28.0696C94.9991 28.2997 94.9281 28.5625 94.9281 28.858V33H93.9224ZM100.847 33.1364C100.256 33.1364 99.7377 32.9957 99.2917 32.7145C98.8485 32.4332 98.502 32.0398 98.252 31.5341C98.0048 31.0284 97.8812 30.4375 97.8812 29.7614C97.8812 29.0795 98.0048 28.4844 98.252 27.9759C98.502 27.4673 98.8485 27.0724 99.2917 26.7912C99.7377 26.5099 100.256 26.3693 100.847 26.3693C101.438 26.3693 101.955 26.5099 102.398 26.7912C102.844 27.0724 103.191 27.4673 103.438 27.9759C103.688 28.4844 103.813 29.0795 103.813 29.7614C103.813 30.4375 103.688 31.0284 103.438 31.5341C103.191 32.0398 102.844 32.4332 102.398 32.7145C101.955 32.9957 101.438 33.1364 100.847 33.1364ZM100.847 32.233C101.296 32.233 101.665 32.1179 101.955 31.8878C102.245 31.6577 102.459 31.3551 102.599 30.9801C102.738 30.6051 102.807 30.1989 102.807 29.7614C102.807 29.3239 102.738 28.9162 102.599 28.5384C102.459 28.1605 102.245 27.8551 101.955 27.6222C101.665 27.3892 101.296 27.2727 100.847 27.2727C100.398 27.2727 100.029 27.3892 99.7392 27.6222C99.4494 27.8551 99.2349 28.1605 99.0957 28.5384C98.9565 28.9162 98.8869 29.3239 98.8869 29.7614C98.8869 30.1989 98.9565 30.6051 99.0957 30.9801C99.2349 31.3551 99.4494 31.6577 99.7392 31.8878C100.029 32.1179 100.398 32.233 100.847 32.233ZM107.99 35.5909C107.504 35.5909 107.087 35.5284 106.737 35.4034C106.388 35.2812 106.097 35.1193 105.864 34.9176C105.634 34.7188 105.45 34.5057 105.314 34.2784L106.115 33.7159C106.206 33.8352 106.321 33.9716 106.46 34.125C106.6 34.2812 106.79 34.4162 107.031 34.5298C107.276 34.6463 107.595 34.7045 107.99 34.7045C108.519 34.7045 108.955 34.5767 109.298 34.321C109.642 34.0653 109.814 33.6648 109.814 33.1193V31.7898H109.729C109.655 31.9091 109.55 32.0568 109.414 32.233C109.28 32.4062 109.087 32.5611 108.834 32.6974C108.584 32.831 108.246 32.8977 107.82 32.8977C107.291 32.8977 106.817 32.7727 106.396 32.5227C105.979 32.2727 105.648 31.9091 105.404 31.4318C105.162 30.9545 105.041 30.375 105.041 29.6932C105.041 29.0227 105.159 28.4389 105.395 27.9418C105.631 27.4418 105.959 27.0554 106.379 26.7827C106.8 26.5071 107.286 26.3693 107.837 26.3693C108.263 26.3693 108.601 26.4403 108.851 26.5824C109.104 26.7216 109.297 26.8807 109.431 27.0597C109.567 27.2358 109.672 27.3807 109.746 27.4943H109.848V26.4545H110.82V33.1875C110.82 33.75 110.692 34.2074 110.436 34.5597C110.183 34.9148 109.843 35.1747 109.414 35.3395C108.987 35.5071 108.513 35.5909 107.99 35.5909ZM107.956 31.9943C108.36 31.9943 108.7 31.902 108.979 31.7173C109.257 31.5327 109.469 31.267 109.614 30.9205C109.759 30.5739 109.831 30.1591 109.831 29.6761C109.831 29.2045 109.76 28.7884 109.618 28.4276C109.476 28.0668 109.266 27.7841 108.987 27.5795C108.709 27.375 108.365 27.2727 107.956 27.2727C107.53 27.2727 107.175 27.3807 106.891 27.5966C106.61 27.8125 106.398 28.1023 106.256 28.4659C106.117 28.8295 106.047 29.233 106.047 29.6761C106.047 30.1307 106.118 30.5327 106.26 30.8821C106.405 31.2287 106.618 31.5014 106.899 31.7003C107.183 31.8963 107.536 31.9943 107.956 31.9943ZM112.661 33V26.4545H113.632V27.4432H113.7C113.82 27.1193 114.036 26.8565 114.348 26.6548C114.661 26.4531 115.013 26.3523 115.405 26.3523C115.479 26.3523 115.571 26.3537 115.682 26.3565C115.793 26.3594 115.877 26.3636 115.933 26.3693V27.392C115.899 27.3835 115.821 27.3707 115.699 27.3537C115.58 27.3338 115.453 27.3239 115.32 27.3239C115.002 27.3239 114.718 27.3906 114.468 27.5241C114.22 27.6548 114.024 27.8366 113.879 28.0696C113.737 28.2997 113.666 28.5625 113.666 28.858V33H112.661ZM119.052 33.1534C118.637 33.1534 118.26 33.0753 117.922 32.919C117.584 32.7599 117.316 32.5312 117.117 32.233C116.918 31.9318 116.819 31.5682 116.819 31.142C116.819 30.767 116.893 30.4631 117.04 30.2301C117.188 29.9943 117.385 29.8097 117.633 29.6761C117.88 29.5426 118.153 29.4432 118.451 29.3778C118.752 29.3097 119.055 29.2557 119.358 29.2159C119.756 29.1648 120.079 29.1264 120.326 29.1009C120.576 29.0724 120.758 29.0256 120.871 28.9602C120.988 28.8949 121.046 28.7812 121.046 28.6193V28.5852C121.046 28.1648 120.931 27.8381 120.701 27.6051C120.474 27.3722 120.128 27.2557 119.665 27.2557C119.185 27.2557 118.809 27.3608 118.536 27.571C118.263 27.7812 118.072 28.0057 117.961 28.2443L117.006 27.9034C117.177 27.5057 117.404 27.196 117.688 26.9744C117.975 26.75 118.287 26.5937 118.626 26.5057C118.966 26.4148 119.302 26.3693 119.631 26.3693C119.841 26.3693 120.083 26.3949 120.356 26.446C120.631 26.4943 120.897 26.5952 121.153 26.7486C121.411 26.902 121.626 27.1335 121.796 27.4432C121.966 27.7528 122.052 28.1676 122.052 28.6875V33H121.046V32.1136H120.995C120.927 32.2557 120.813 32.4077 120.654 32.5696C120.495 32.7315 120.283 32.8693 120.019 32.983C119.755 33.0966 119.432 33.1534 119.052 33.1534ZM119.205 32.25C119.603 32.25 119.938 32.1719 120.211 32.0156C120.486 31.8594 120.694 31.6577 120.833 31.4105C120.975 31.1634 121.046 30.9034 121.046 30.6307V29.7102C121.003 29.7614 120.91 29.8082 120.765 29.8509C120.623 29.8906 120.458 29.9261 120.27 29.9574C120.086 29.9858 119.905 30.0114 119.729 30.0341C119.556 30.054 119.415 30.071 119.307 30.0852C119.046 30.1193 118.802 30.1747 118.574 30.2514C118.35 30.3253 118.168 30.4375 118.029 30.5881C117.893 30.7358 117.824 30.9375 117.824 31.1932C117.824 31.5426 117.954 31.8068 118.212 31.9858C118.474 32.1619 118.805 32.25 119.205 32.25ZM123.887 33V26.4545H124.859V27.4773H124.944C125.08 27.1278 125.301 26.8565 125.605 26.6634C125.909 26.4673 126.274 26.3693 126.7 26.3693C127.132 26.3693 127.491 26.4673 127.778 26.6634C128.068 26.8565 128.294 27.1278 128.455 27.4773H128.524C128.691 27.1392 128.943 26.8707 129.278 26.6719C129.613 26.4702 130.015 26.3693 130.484 26.3693C131.069 26.3693 131.548 26.5526 131.92 26.919C132.292 27.2827 132.478 27.8494 132.478 28.6193V33H131.472V28.6193C131.472 28.1364 131.34 27.7912 131.076 27.5838C130.812 27.3764 130.501 27.2727 130.143 27.2727C129.683 27.2727 129.326 27.4119 129.073 27.6903C128.82 27.9659 128.694 28.3153 128.694 28.7386V33H127.671V28.517C127.671 28.1449 127.551 27.8452 127.309 27.6179C127.068 27.3878 126.757 27.2727 126.376 27.2727C126.115 27.2727 125.87 27.3423 125.643 27.4815C125.419 27.6207 125.237 27.8139 125.097 28.0611C124.961 28.3054 124.893 28.5881 124.893 28.9091V33H123.887ZM136.243 33.1534C135.828 33.1534 135.452 33.0753 135.114 32.919C134.776 32.7599 134.507 32.5312 134.308 32.233C134.11 31.9318 134.01 31.5682 134.01 31.142C134.01 30.767 134.084 30.4631 134.232 30.2301C134.379 29.9943 134.577 29.8097 134.824 29.6761C135.071 29.5426 135.344 29.4432 135.642 29.3778C135.943 29.3097 136.246 29.2557 136.55 29.2159C136.948 29.1648 137.27 29.1264 137.517 29.1009C137.767 29.0724 137.949 29.0256 138.063 28.9602C138.179 28.8949 138.237 28.7812 138.237 28.6193V28.5852C138.237 28.1648 138.122 27.8381 137.892 27.6051C137.665 27.3722 137.32 27.2557 136.857 27.2557C136.377 27.2557 136 27.3608 135.727 27.571C135.455 27.7812 135.263 28.0057 135.152 28.2443L134.198 27.9034C134.368 27.5057 134.595 27.196 134.879 26.9744C135.166 26.75 135.479 26.5937 135.817 26.5057C136.158 26.4148 136.493 26.3693 136.823 26.3693C137.033 26.3693 137.274 26.3949 137.547 26.446C137.823 26.4943 138.088 26.5952 138.344 26.7486C138.602 26.902 138.817 27.1335 138.987 27.4432C139.158 27.7528 139.243 28.1676 139.243 28.6875V33H138.237V32.1136H138.186C138.118 32.2557 138.004 32.4077 137.845 32.5696C137.686 32.7315 137.475 32.8693 137.21 32.983C136.946 33.0966 136.624 33.1534 136.243 33.1534ZM136.396 32.25C136.794 32.25 137.129 32.1719 137.402 32.0156C137.678 31.8594 137.885 31.6577 138.024 31.4105C138.166 31.1634 138.237 30.9034 138.237 30.6307V29.7102C138.195 29.7614 138.101 29.8082 137.956 29.8509C137.814 29.8906 137.649 29.9261 137.462 29.9574C137.277 29.9858 137.097 30.0114 136.921 30.0341C136.747 30.054 136.607 30.071 136.499 30.0852C136.237 30.1193 135.993 30.1747 135.766 30.2514C135.541 30.3253 135.36 30.4375 135.22 30.5881C135.084 30.7358 135.016 30.9375 135.016 31.1932C135.016 31.5426 135.145 31.8068 135.404 31.9858C135.665 32.1619 135.996 32.25 136.396 32.25ZM143.738 33.1364C143.124 33.1364 142.596 32.9915 142.153 32.7017C141.709 32.4119 141.368 32.0128 141.13 31.5043C140.891 30.9957 140.772 30.4148 140.772 29.7614C140.772 29.0966 140.894 28.5099 141.138 28.0014C141.385 27.4901 141.729 27.0909 142.17 26.804C142.613 26.5142 143.13 26.3693 143.721 26.3693C144.181 26.3693 144.596 26.4545 144.965 26.625C145.334 26.7955 145.637 27.0341 145.873 27.3409C146.108 27.6477 146.255 28.0057 146.312 28.4148H145.306C145.229 28.1165 145.059 27.8523 144.795 27.6222C144.533 27.3892 144.181 27.2727 143.738 27.2727C143.346 27.2727 143.002 27.375 142.706 27.5795C142.414 27.7812 142.185 28.0668 142.02 28.4361C141.858 28.8026 141.778 29.233 141.778 29.7273C141.778 30.233 141.857 30.6733 142.016 31.0483C142.178 31.4233 142.405 31.7145 142.698 31.9219C142.993 32.1293 143.34 32.233 143.738 32.233C143.999 32.233 144.236 32.1875 144.449 32.0966C144.662 32.0057 144.843 31.875 144.991 31.7045C145.138 31.5341 145.243 31.3295 145.306 31.0909H146.312C146.255 31.4773 146.114 31.8253 145.89 32.1349C145.668 32.4418 145.374 32.6861 145.008 32.8679C144.644 33.0469 144.221 33.1364 143.738 33.1364ZM143.26 32.9659H144.096L144.028 33.3068C144.249 33.3409 144.452 33.4332 144.637 33.5838C144.822 33.7372 144.914 33.9801 144.914 34.3125C144.914 34.679 144.762 34.9773 144.458 35.2074C144.157 35.4403 143.712 35.5568 143.124 35.5568L143.09 34.892C143.354 34.892 143.573 34.8494 143.746 34.7642C143.922 34.6818 144.01 34.5426 144.01 34.3466C144.01 34.1506 143.938 34.017 143.793 33.946C143.648 33.875 143.414 33.8267 143.09 33.8011L143.26 32.9659ZM149.708 33.1534C149.293 33.1534 148.917 33.0753 148.579 32.919C148.241 32.7599 147.972 32.5312 147.773 32.233C147.574 31.9318 147.475 31.5682 147.475 31.142C147.475 30.767 147.549 30.4631 147.697 30.2301C147.844 29.9943 148.042 29.8097 148.289 29.6761C148.536 29.5426 148.809 29.4432 149.107 29.3778C149.408 29.3097 149.711 29.2557 150.015 29.2159C150.412 29.1648 150.735 29.1264 150.982 29.1009C151.232 29.0724 151.414 29.0256 151.528 28.9602C151.644 28.8949 151.702 28.7812 151.702 28.6193V28.5852C151.702 28.1648 151.587 27.8381 151.357 27.6051C151.13 27.3722 150.785 27.2557 150.322 27.2557C149.841 27.2557 149.465 27.3608 149.192 27.571C148.92 27.7812 148.728 28.0057 148.617 28.2443L147.662 27.9034C147.833 27.5057 148.06 27.196 148.344 26.9744C148.631 26.75 148.944 26.5937 149.282 26.5057C149.623 26.4148 149.958 26.3693 150.287 26.3693C150.498 26.3693 150.739 26.3949 151.012 26.446C151.287 26.4943 151.553 26.5952 151.809 26.7486C152.067 26.902 152.282 27.1335 152.452 27.4432C152.623 27.7528 152.708 28.1676 152.708 28.6875V33H151.702V32.1136H151.651C151.583 32.2557 151.469 32.4077 151.31 32.5696C151.151 32.7315 150.939 32.8693 150.675 32.983C150.411 33.0966 150.089 33.1534 149.708 33.1534ZM149.861 32.25C150.259 32.25 150.594 32.1719 150.867 32.0156C151.143 31.8594 151.35 31.6577 151.489 31.4105C151.631 31.1634 151.702 30.9034 151.702 30.6307V29.7102C151.66 29.7614 151.566 29.8082 151.421 29.8509C151.279 29.8906 151.114 29.9261 150.927 29.9574C150.742 29.9858 150.562 30.0114 150.385 30.0341C150.212 30.054 150.072 30.071 149.964 30.0852C149.702 30.1193 149.458 30.1747 149.231 30.2514C149.006 30.3253 148.824 30.4375 148.685 30.5881C148.549 30.7358 148.481 30.9375 148.481 31.1932C148.481 31.5426 148.61 31.8068 148.868 31.9858C149.13 32.1619 149.461 32.25 149.861 32.25ZM149.043 25.6705L148.259 25.6364C148.259 25.2017 148.383 24.8466 148.63 24.571C148.88 24.2926 149.188 24.1534 149.555 24.1534C149.716 24.1534 149.86 24.1818 149.985 24.2386C150.11 24.2926 150.229 24.3551 150.343 24.4261C150.456 24.4972 150.573 24.5611 150.692 24.6179C150.814 24.6719 150.952 24.6989 151.106 24.6989C151.268 24.6989 151.404 24.6364 151.515 24.5114C151.628 24.3835 151.685 24.2301 151.685 24.0511L152.452 24.1193C152.452 24.5625 152.327 24.9148 152.077 25.1761C151.83 25.4375 151.523 25.5682 151.157 25.5682C150.961 25.5682 150.799 25.5412 150.671 25.4872C150.543 25.4304 150.43 25.3665 150.33 25.2955C150.231 25.2244 150.126 25.1619 150.015 25.108C149.904 25.0511 149.768 25.0227 149.606 25.0227C149.444 25.0227 149.309 25.0866 149.201 25.2145C149.096 25.3395 149.043 25.4915 149.043 25.6705ZM157.203 33.1364C156.612 33.1364 156.093 32.9957 155.647 32.7145C155.204 32.4332 154.857 32.0398 154.607 31.5341C154.36 31.0284 154.237 30.4375 154.237 29.7614C154.237 29.0795 154.36 28.4844 154.607 27.9759C154.857 27.4673 155.204 27.0724 155.647 26.7912C156.093 26.5099 156.612 26.3693 157.203 26.3693C157.794 26.3693 158.311 26.5099 158.754 26.7912C159.2 27.0724 159.546 27.4673 159.794 27.9759C160.044 28.4844 160.169 29.0795 160.169 29.7614C160.169 30.4375 160.044 31.0284 159.794 31.5341C159.546 32.0398 159.2 32.4332 158.754 32.7145C158.311 32.9957 157.794 33.1364 157.203 33.1364ZM157.203 32.233C157.651 32.233 158.021 32.1179 158.311 31.8878C158.6 31.6577 158.815 31.3551 158.954 30.9801C159.093 30.6051 159.163 30.1989 159.163 29.7614C159.163 29.3239 159.093 28.9162 158.954 28.5384C158.815 28.1605 158.6 27.8551 158.311 27.6222C158.021 27.3892 157.651 27.2727 157.203 27.2727C156.754 27.2727 156.384 27.3892 156.095 27.6222C155.805 27.8551 155.59 28.1605 155.451 28.5384C155.312 28.9162 155.242 29.3239 155.242 29.7614C155.242 30.1989 155.312 30.6051 155.451 30.9801C155.59 31.3551 155.805 31.6577 156.095 31.8878C156.384 32.1179 156.754 32.233 157.203 32.233Z" fill="#D3D3D3"/>
</svg>
