<svg width="80" height="80" viewBox="0 0 80 80" fill="none" xmlns="http://www.w3.org/2000/svg">
<rect width="80" height="80" rx="8" fill="#1F1F1F"/>
<circle cx="56" cy="55" r="5" fill="#E300F7"/>
<path d="M29.6222 44.6591V60H23.4517V25.0909H29.4858V38.267H29.7926C30.4063 36.7898 31.3551 35.625 32.6392 34.7727C33.9347 33.9091 35.5824 33.4773 37.5824 33.4773C39.4006 33.4773 40.9858 33.858 42.3381 34.6193C43.6903 35.3807 44.7358 36.4943 45.4744 37.9602C46.2244 39.4261 46.5994 41.2159 46.5994 43.3295V60H40.429V44.2841C40.429 42.5227 39.9744 41.1534 39.0653 40.1761C38.1676 39.1875 36.9062 38.6932 35.2812 38.6932C34.1903 38.6932 33.2131 38.9318 32.3494 39.4091C31.4972 39.875 30.8267 40.5511 30.3381 41.4375C29.8608 42.3239 29.6222 43.3977 29.6222 44.6591Z" fill="white"/>
</svg>
