<svg width="204" height="56" viewBox="0 0 204 56" fill="none" xmlns="http://www.w3.org/2000/svg">
<path d="M52.4561 27V12.4545H55.0911V18.6122H61.8311V12.4545H64.4732V27H61.8311V20.821H55.0911V27H52.4561ZM72.0549 27.2131C70.9611 27.2131 70.0165 26.9858 69.2211 26.5312C68.4303 26.072 67.8219 25.4233 67.3958 24.5852C66.9696 23.7424 66.7566 22.7505 66.7566 21.6094C66.7566 20.4872 66.9696 19.5024 67.3958 18.6548C67.8266 17.8026 68.428 17.1397 69.1998 16.6662C69.9715 16.188 70.8783 15.9489 71.9199 15.9489C72.5923 15.9489 73.2267 16.0578 73.8233 16.2756C74.4247 16.4886 74.955 16.8201 75.4142 17.2699C75.8783 17.7197 76.2428 18.2926 76.508 18.9886C76.7731 19.6799 76.9057 20.5038 76.9057 21.4602V22.2486H67.964V20.5156H74.4412C74.4365 20.0232 74.33 19.5852 74.1216 19.2017C73.9133 18.8134 73.6221 18.508 73.248 18.2855C72.8787 18.063 72.4479 17.9517 71.9554 17.9517C71.4299 17.9517 70.9682 18.0795 70.5705 18.3352C70.1728 18.5862 69.8626 18.9176 69.6401 19.3295C69.4223 19.7367 69.311 20.1842 69.3063 20.6719V22.1847C69.3063 22.8191 69.4223 23.3636 69.6543 23.8182C69.8863 24.268 70.2106 24.6136 70.6273 24.8551C71.044 25.0919 71.5317 25.2102 72.0904 25.2102C72.4644 25.2102 72.803 25.1581 73.106 25.054C73.409 24.9451 73.6718 24.7865 73.8944 24.5781C74.1169 24.3698 74.285 24.1117 74.3986 23.804L76.7992 24.0739C76.6477 24.7083 76.3588 25.2623 75.9327 25.7358C75.5113 26.2045 74.9715 26.5691 74.3134 26.8295C73.6552 27.0852 72.9024 27.2131 72.0549 27.2131ZM79.0808 27V16.0909H81.5737V17.9091H81.6873C81.8862 17.2794 82.2271 16.794 82.71 16.4531C83.1977 16.1075 83.7541 15.9347 84.3791 15.9347C84.5211 15.9347 84.6797 15.9418 84.8549 15.956C85.0349 15.9654 85.184 15.982 85.3024 16.0057V18.3707C85.1935 18.3329 85.0207 18.2997 84.7839 18.2713C84.5519 18.2382 84.327 18.2216 84.1092 18.2216C83.6404 18.2216 83.219 18.3234 82.845 18.527C82.4757 18.7259 82.1845 19.0028 81.9714 19.358C81.7583 19.7131 81.6518 20.1226 81.6518 20.5866V27H79.0808ZM89.5815 20.608V27H87.0105V16.0909H89.4679V17.9446H89.5957C89.8467 17.3338 90.2467 16.8485 90.796 16.4886C91.35 16.1288 92.0342 15.9489 92.8485 15.9489C93.6014 15.9489 94.2572 16.1098 94.8159 16.4318C95.3793 16.7538 95.8149 17.2202 96.1227 17.831C96.4352 18.4418 96.5891 19.1828 96.5843 20.054V27H94.0133V20.4517C94.0133 19.7225 93.8239 19.152 93.4451 18.7401C93.0711 18.3281 92.5526 18.1222 91.8897 18.1222C91.4399 18.1222 91.0398 18.2216 90.6895 18.4205C90.3438 18.6146 90.0716 18.8963 89.8727 19.2656C89.6786 19.6349 89.5815 20.0824 89.5815 20.608ZM102.337 27.2202C101.646 27.2202 101.023 27.0971 100.469 26.8509C99.92 26.5999 99.4844 26.2306 99.1625 25.7429C98.8452 25.2552 98.6866 24.6539 98.6866 23.9389C98.6866 23.3234 98.8002 22.8144 99.0275 22.4119C99.2548 22.0095 99.5649 21.6875 99.9579 21.446C100.351 21.2045 100.794 21.0223 101.286 20.8991C101.783 20.7713 102.297 20.679 102.827 20.6222C103.466 20.5559 103.985 20.4967 104.383 20.4446C104.78 20.3878 105.069 20.3026 105.249 20.1889C105.434 20.0705 105.526 19.8883 105.526 19.642V19.5994C105.526 19.0644 105.367 18.6501 105.05 18.3565C104.733 18.063 104.276 17.9162 103.68 17.9162C103.05 17.9162 102.55 18.0535 102.181 18.3281C101.816 18.6027 101.57 18.9271 101.442 19.3011L99.0417 18.9602C99.2311 18.2973 99.5436 17.7434 99.9792 17.2983C100.415 16.8485 100.948 16.5123 101.577 16.2898C102.207 16.0625 102.903 15.9489 103.665 15.9489C104.191 15.9489 104.714 16.0104 105.235 16.1335C105.756 16.2566 106.232 16.4602 106.662 16.7443C107.093 17.0237 107.439 17.4048 107.699 17.8878C107.965 18.3707 108.097 18.9744 108.097 19.6989V27H105.626V25.5014H105.54C105.384 25.8045 105.164 26.0885 104.88 26.3537C104.6 26.6141 104.248 26.8248 103.822 26.9858C103.4 27.142 102.905 27.2202 102.337 27.2202ZM103.005 25.331C103.521 25.331 103.968 25.2292 104.347 25.0256C104.726 24.8172 105.017 24.5426 105.221 24.2017C105.429 23.8608 105.533 23.4891 105.533 23.0866V21.8011C105.453 21.8674 105.315 21.929 105.121 21.9858C104.932 22.0426 104.719 22.0923 104.482 22.1349C104.245 22.1776 104.011 22.2154 103.779 22.2486C103.547 22.2817 103.346 22.3101 103.175 22.3338C102.792 22.3859 102.448 22.4711 102.145 22.5895C101.842 22.7079 101.603 22.8736 101.428 23.0866C101.253 23.295 101.165 23.5649 101.165 23.8963C101.165 24.3698 101.338 24.7273 101.684 24.9688C102.029 25.2102 102.47 25.331 103.005 25.331ZM113.253 20.608V27H110.682V16.0909H113.14V17.9446H113.268C113.519 17.3338 113.919 16.8485 114.468 16.4886C115.022 16.1288 115.706 15.9489 116.52 15.9489C117.273 15.9489 117.929 16.1098 118.488 16.4318C119.051 16.7538 119.487 17.2202 119.795 17.831C120.107 18.4418 120.261 19.1828 120.256 20.054V27H117.685V20.4517C117.685 19.7225 117.496 19.152 117.117 18.7401C116.743 18.3281 116.224 18.1222 115.562 18.1222C115.112 18.1222 114.712 18.2216 114.361 18.4205C114.016 18.6146 113.743 18.8963 113.545 19.2656C113.35 19.6349 113.253 20.0824 113.253 20.608ZM126.918 27.1918C126.061 27.1918 125.294 26.9716 124.617 26.5312C123.94 26.0909 123.405 25.4517 123.012 24.6136C122.619 23.7756 122.422 22.7576 122.422 21.5597C122.422 20.3475 122.621 19.3248 123.019 18.4915C123.421 17.6534 123.964 17.0213 124.645 16.5952C125.327 16.1643 126.087 15.9489 126.925 15.9489C127.564 15.9489 128.09 16.0578 128.502 16.2756C128.914 16.4886 129.241 16.7467 129.482 17.0497C129.724 17.348 129.911 17.6297 130.043 17.8949H130.15V12.4545H132.728V27H130.199V25.2812H130.043C129.911 25.5464 129.719 25.8281 129.468 26.1264C129.217 26.42 128.885 26.6709 128.474 26.8793C128.062 27.0876 127.543 27.1918 126.918 27.1918ZM127.635 25.0824C128.18 25.0824 128.644 24.9356 129.028 24.642C129.411 24.3437 129.702 23.9295 129.901 23.3991C130.1 22.8688 130.199 22.2509 130.199 21.5455C130.199 20.84 130.1 20.2268 129.901 19.706C129.707 19.1851 129.418 18.7803 129.035 18.4915C128.656 18.2027 128.189 18.0582 127.635 18.0582C127.063 18.0582 126.584 18.2074 126.201 18.5057C125.817 18.804 125.528 19.2159 125.334 19.7415C125.14 20.267 125.043 20.8684 125.043 21.5455C125.043 22.2273 125.14 22.8357 125.334 23.3707C125.533 23.901 125.824 24.3201 126.208 24.6278C126.596 24.9309 127.072 25.0824 127.635 25.0824ZM140.297 27.2131C139.203 27.2131 138.259 26.9858 137.463 26.5312C136.673 26.072 136.064 25.4233 135.638 24.5852C135.212 23.7424 134.999 22.7505 134.999 21.6094C134.999 20.4872 135.212 19.5024 135.638 18.6548C136.069 17.8026 136.67 17.1397 137.442 16.6662C138.214 16.188 139.12 15.9489 140.162 15.9489C140.834 15.9489 141.469 16.0578 142.066 16.2756C142.667 16.4886 143.197 16.8201 143.656 17.2699C144.12 17.7197 144.485 18.2926 144.75 18.9886C145.015 19.6799 145.148 20.5038 145.148 21.4602V22.2486H136.206V20.5156H142.683C142.679 20.0232 142.572 19.5852 142.364 19.2017C142.155 18.8134 141.864 18.508 141.49 18.2855C141.121 18.063 140.69 17.9517 140.198 17.9517C139.672 17.9517 139.21 18.0795 138.813 18.3352C138.415 18.5862 138.105 18.9176 137.882 19.3295C137.664 19.7367 137.553 20.1842 137.548 20.6719V22.1847C137.548 22.8191 137.664 23.3636 137.896 23.8182C138.128 24.268 138.453 24.6136 138.869 24.8551C139.286 25.0919 139.774 25.2102 140.333 25.2102C140.707 25.2102 141.045 25.1581 141.348 25.054C141.651 24.9451 141.914 24.7865 142.137 24.5781C142.359 24.3698 142.527 24.1117 142.641 23.804L145.041 24.0739C144.89 24.7083 144.601 25.2623 144.175 25.7358C143.753 26.2045 143.214 26.5691 142.556 26.8295C141.897 27.0852 141.145 27.2131 140.297 27.2131ZM155.945 18.9744L153.601 19.2301C153.535 18.9934 153.419 18.7708 153.253 18.5625C153.092 18.3542 152.875 18.1861 152.6 18.0582C152.325 17.9304 151.989 17.8665 151.591 17.8665C151.056 17.8665 150.607 17.9825 150.242 18.2145C149.882 18.4465 149.705 18.7472 149.709 19.1165C149.705 19.4337 149.821 19.6918 150.057 19.8906C150.299 20.0895 150.697 20.2528 151.251 20.3807L153.111 20.7784C154.144 21.0009 154.911 21.3537 155.412 21.8366C155.919 22.3196 156.175 22.9517 156.18 23.733C156.175 24.4195 155.974 25.0256 155.576 25.5511C155.183 26.072 154.636 26.4792 153.935 26.7727C153.234 27.0663 152.43 27.2131 151.52 27.2131C150.185 27.2131 149.11 26.9337 148.296 26.375C147.482 25.8116 146.996 25.0279 146.84 24.0241L149.347 23.7827C149.461 24.2751 149.702 24.6468 150.072 24.8977C150.441 25.1487 150.921 25.2741 151.513 25.2741C152.124 25.2741 152.614 25.1487 152.983 24.8977C153.358 24.6468 153.545 24.3366 153.545 23.9673C153.545 23.6548 153.424 23.3968 153.182 23.1932C152.946 22.9896 152.576 22.8333 152.074 22.7244L150.214 22.3338C149.167 22.116 148.393 21.7491 147.891 21.233C147.389 20.7121 147.141 20.054 147.145 19.2585C147.141 18.5862 147.323 18.0038 147.692 17.5114C148.066 17.0142 148.585 16.6307 149.248 16.3608C149.915 16.0862 150.685 15.9489 151.556 15.9489C152.834 15.9489 153.84 16.2211 154.574 16.7656C155.313 17.3101 155.77 18.0464 155.945 18.9744Z" fill="#141414"/>
<circle cx="161" cy="25" r="2" fill="#361C9C"/>
<path d="M27.2736 41V32.2727H32.5407V33.2102H28.3304V36.1591H32.2679V37.0966H28.3304V40.0625H32.6088V41H27.2736ZM35.3148 37.0625V41H34.3091V34.4545H35.2807V35.4773H35.3659C35.5194 35.1449 35.7523 34.8778 36.0648 34.6761C36.3773 34.4716 36.7807 34.3693 37.275 34.3693C37.7182 34.3693 38.106 34.4602 38.4384 34.642C38.7708 34.821 39.0293 35.0938 39.214 35.4602C39.3986 35.8239 39.4909 36.2841 39.4909 36.8409V41H38.4853V36.9091C38.4853 36.3949 38.3517 35.9943 38.0847 35.7074C37.8176 35.4176 37.4512 35.2727 36.9853 35.2727C36.6642 35.2727 36.3773 35.3423 36.1245 35.4815C35.8745 35.6207 35.677 35.8239 35.5321 36.0909C35.3873 36.358 35.3148 36.6818 35.3148 37.0625ZM43.9707 43.5909C43.4849 43.5909 43.0673 43.5284 42.7179 43.4034C42.3684 43.2812 42.0772 43.1193 41.8443 42.9176C41.6142 42.7188 41.4309 42.5057 41.2946 42.2784L42.0957 41.7159C42.1866 41.8352 42.3017 41.9716 42.4409 42.125C42.5801 42.2812 42.7704 42.4162 43.0119 42.5298C43.2562 42.6463 43.5758 42.7045 43.9707 42.7045C44.4991 42.7045 44.9352 42.5767 45.2789 42.321C45.6227 42.0653 45.7946 41.6648 45.7946 41.1193V39.7898H45.7093C45.6355 39.9091 45.5304 40.0568 45.394 40.233C45.2605 40.4062 45.0673 40.5611 44.8145 40.6974C44.5645 40.831 44.2264 40.8977 43.8002 40.8977C43.2718 40.8977 42.7974 40.7727 42.377 40.5227C41.9593 40.2727 41.6284 39.9091 41.3841 39.4318C41.1426 38.9545 41.0218 38.375 41.0218 37.6932C41.0218 37.0227 41.1397 36.4389 41.3755 35.9418C41.6113 35.4418 41.9395 35.0554 42.3599 34.7827C42.7804 34.5071 43.2662 34.3693 43.8173 34.3693C44.2434 34.3693 44.5815 34.4403 44.8315 34.5824C45.0843 34.7216 45.2775 34.8807 45.411 35.0597C45.5474 35.2358 45.6525 35.3807 45.7264 35.4943H45.8287V34.4545H46.8002V41.1875C46.8002 41.75 46.6724 42.2074 46.4167 42.5597C46.1639 42.9148 45.823 43.1747 45.394 43.3395C44.9679 43.5071 44.4934 43.5909 43.9707 43.5909ZM43.9366 39.9943C44.34 39.9943 44.6809 39.902 44.9593 39.7173C45.2377 39.5327 45.4494 39.267 45.5943 38.9205C45.7392 38.5739 45.8116 38.1591 45.8116 37.6761C45.8116 37.2045 45.7406 36.7884 45.5985 36.4276C45.4565 36.0668 45.2463 35.7841 44.9679 35.5795C44.6895 35.375 44.3457 35.2727 43.9366 35.2727C43.5105 35.2727 43.1554 35.3807 42.8713 35.5966C42.59 35.8125 42.3784 36.1023 42.2363 36.4659C42.0971 36.8295 42.0275 37.233 42.0275 37.6761C42.0275 38.1307 42.0985 38.5327 42.2406 38.8821C42.3855 39.2287 42.5985 39.5014 42.8798 39.7003C43.1639 39.8963 43.5162 39.9943 43.9366 39.9943ZM51.3855 41.1364C50.7548 41.1364 50.2108 40.9972 49.7534 40.7188C49.2988 40.4375 48.948 40.0455 48.7008 39.5426C48.4565 39.0369 48.3343 38.4489 48.3343 37.7784C48.3343 37.108 48.4565 36.517 48.7008 36.0057C48.948 35.4915 49.2917 35.0909 49.7321 34.804C50.1752 34.5142 50.6923 34.3693 51.2832 34.3693C51.6241 34.3693 51.9608 34.4261 52.2931 34.5398C52.6255 34.6534 52.9281 34.8381 53.2008 35.0938C53.4735 35.3466 53.6909 35.6818 53.8528 36.0994C54.0147 36.517 54.0957 37.0312 54.0957 37.642V38.0682H49.0502V37.1989H53.073C53.073 36.8295 52.9991 36.5 52.8514 36.2102C52.7065 35.9205 52.4991 35.6918 52.2292 35.5241C51.9622 35.3565 51.6468 35.2727 51.2832 35.2727C50.8826 35.2727 50.536 35.3722 50.2434 35.571C49.9537 35.767 49.7306 36.0227 49.5744 36.3381C49.4181 36.6534 49.34 36.9915 49.34 37.3523V37.9318C49.34 38.4261 49.4252 38.8452 49.5957 39.1889C49.769 39.5298 50.0091 39.7898 50.3159 39.9688C50.6227 40.1449 50.9792 40.233 51.3855 40.233C51.6497 40.233 51.8883 40.196 52.1014 40.1222C52.3173 40.0455 52.5034 39.9318 52.6596 39.7812C52.8159 39.6278 52.9366 39.4375 53.0218 39.2102L53.9934 39.483C53.8912 39.8125 53.7193 40.1023 53.4778 40.3523C53.2363 40.5994 52.938 40.7926 52.5829 40.9318C52.2278 41.0682 51.8287 41.1364 51.3855 41.1364ZM56.6312 37.0625V41H55.6255V34.4545H56.5971V35.4773H56.6824C56.8358 35.1449 57.0687 34.8778 57.3812 34.6761C57.6937 34.4716 58.0971 34.3693 58.5914 34.3693C59.0346 34.3693 59.4224 34.4602 59.7548 34.642C60.0872 34.821 60.3457 35.0938 60.5304 35.4602C60.715 35.8239 60.8074 36.2841 60.8074 36.8409V41H59.8017V36.9091C59.8017 36.3949 59.6681 35.9943 59.4011 35.7074C59.1341 35.4176 58.7676 35.2727 58.3017 35.2727C57.9806 35.2727 57.6937 35.3423 57.4409 35.4815C57.1909 35.6207 56.9934 35.8239 56.8485 36.0909C56.7037 36.358 56.6312 36.6818 56.6312 37.0625ZM63.6507 37.0625V41H62.6451V32.2727H63.6507V35.4773H63.736C63.8894 35.1392 64.1195 34.8707 64.4263 34.6719C64.736 34.4702 65.1479 34.3693 65.6621 34.3693C66.1081 34.3693 66.4988 34.4588 66.834 34.6378C67.1692 34.8139 67.4292 35.0852 67.6138 35.4517C67.8013 35.8153 67.8951 36.2784 67.8951 36.8409V41H66.8894V36.9091C66.8894 36.3892 66.7544 35.9872 66.4846 35.7031C66.2175 35.4162 65.8468 35.2727 65.3723 35.2727C65.0428 35.2727 64.7473 35.3423 64.486 35.4815C64.2275 35.6207 64.0229 35.8239 63.8723 36.0909C63.7246 36.358 63.6507 36.6818 63.6507 37.0625ZM71.661 41.1534C71.2463 41.1534 70.8699 41.0753 70.5318 40.919C70.1937 40.7599 69.9252 40.5312 69.7264 40.233C69.5275 39.9318 69.4281 39.5682 69.4281 39.142C69.4281 38.767 69.502 38.4631 69.6497 38.2301C69.7974 37.9943 69.9949 37.8097 70.242 37.6761C70.4892 37.5426 70.7619 37.4432 71.0602 37.3778C71.3613 37.3097 71.6639 37.2557 71.9679 37.2159C72.3656 37.1648 72.688 37.1264 72.9352 37.1009C73.1852 37.0724 73.367 37.0256 73.4806 36.9602C73.5971 36.8949 73.6554 36.7812 73.6554 36.6193V36.5852C73.6554 36.1648 73.5403 35.8381 73.3102 35.6051C73.0829 35.3722 72.7377 35.2557 72.2747 35.2557C71.7946 35.2557 71.4181 35.3608 71.1454 35.571C70.8727 35.7812 70.6809 36.0057 70.5701 36.2443L69.6156 35.9034C69.786 35.5057 70.0133 35.196 70.2974 34.9744C70.5843 34.75 70.8968 34.5937 71.2349 34.5057C71.5758 34.4148 71.911 34.3693 72.2406 34.3693C72.4508 34.3693 72.6923 34.3949 72.965 34.446C73.2406 34.4943 73.5062 34.5952 73.7619 34.7486C74.0204 34.902 74.2349 35.1335 74.4054 35.4432C74.5758 35.7528 74.661 36.1676 74.661 36.6875V41H73.6554V40.1136H73.6042C73.536 40.2557 73.4224 40.4077 73.2633 40.5696C73.1042 40.7315 72.8926 40.8693 72.6284 40.983C72.3642 41.0966 72.0417 41.1534 71.661 41.1534ZM71.8145 40.25C72.2122 40.25 72.5474 40.1719 72.8201 40.0156C73.0957 39.8594 73.3031 39.6577 73.4423 39.4105C73.5843 39.1634 73.6554 38.9034 73.6554 38.6307V37.7102C73.6127 37.7614 73.519 37.8082 73.3741 37.8509C73.2321 37.8906 73.0673 37.9261 72.8798 37.9574C72.6951 37.9858 72.5147 38.0114 72.3386 38.0341C72.1653 38.054 72.0247 38.071 71.9167 38.0852C71.6554 38.1193 71.411 38.1747 71.1838 38.2514C70.9593 38.3253 70.7775 38.4375 70.6383 38.5881C70.502 38.7358 70.4338 38.9375 70.4338 39.1932C70.4338 39.5426 70.563 39.8068 70.8216 39.9858C71.0829 40.1619 71.4139 40.25 71.8145 40.25ZM76.4966 41V34.4545H77.4682V35.4432H77.5364C77.6557 35.1193 77.8716 34.8565 78.1841 34.6548C78.4966 34.4531 78.8489 34.3523 79.2409 34.3523C79.3148 34.3523 79.4071 34.3537 79.5179 34.3565C79.6287 34.3594 79.7125 34.3636 79.7694 34.3693V35.392C79.7353 35.3835 79.6571 35.3707 79.535 35.3537C79.4157 35.3338 79.2892 35.3239 79.1557 35.3239C78.8375 35.3239 78.5534 35.3906 78.3034 35.5241C78.0563 35.6548 77.8603 35.8366 77.7154 36.0696C77.5733 36.2997 77.5023 36.5625 77.5023 36.858V41H76.4966ZM80.9615 41V34.4545H81.9672V41H80.9615ZM81.4728 33.3636C81.2768 33.3636 81.1078 33.2969 80.9657 33.1634C80.8265 33.0298 80.7569 32.8693 80.7569 32.6818C80.7569 32.4943 80.8265 32.3338 80.9657 32.2003C81.1078 32.0668 81.2768 32 81.4728 32C81.6689 32 81.8365 32.0668 81.9757 32.2003C82.1177 32.3338 82.1887 32.4943 82.1887 32.6818C82.1887 32.8693 82.1177 33.0298 81.9757 33.1634C81.8365 33.2969 81.6689 33.3636 81.4728 33.3636ZM85.7353 41.1534C85.3205 41.1534 84.9441 41.0753 84.606 40.919C84.2679 40.7599 83.9995 40.5312 83.8006 40.233C83.6017 39.9318 83.5023 39.5682 83.5023 39.142C83.5023 38.767 83.5762 38.4631 83.7239 38.2301C83.8716 37.9943 84.0691 37.8097 84.3162 37.6761C84.5634 37.5426 84.8361 37.4432 85.1344 37.3778C85.4355 37.3097 85.7381 37.2557 86.0421 37.2159C86.4398 37.1648 86.7623 37.1264 87.0094 37.1009C87.2594 37.0724 87.4412 37.0256 87.5549 36.9602C87.6713 36.8949 87.7296 36.7812 87.7296 36.6193V36.5852C87.7296 36.1648 87.6145 35.8381 87.3844 35.6051C87.1571 35.3722 86.812 35.2557 86.3489 35.2557C85.8688 35.2557 85.4924 35.3608 85.2196 35.571C84.9469 35.7812 84.7551 36.0057 84.6444 36.2443L83.6898 35.9034C83.8603 35.5057 84.0875 35.196 84.3716 34.9744C84.6586 34.75 84.9711 34.5937 85.3091 34.5057C85.65 34.4148 85.9853 34.3693 86.3148 34.3693C86.525 34.3693 86.7665 34.3949 87.0392 34.446C87.3148 34.4943 87.5804 34.5952 87.8361 34.7486C88.0946 34.902 88.3091 35.1335 88.4796 35.4432C88.65 35.7528 88.7353 36.1676 88.7353 36.6875V41H87.7296V40.1136H87.6784C87.6103 40.2557 87.4966 40.4077 87.3375 40.5696C87.1784 40.7315 86.9668 40.8693 86.7026 40.983C86.4384 41.0966 86.1159 41.1534 85.7353 41.1534ZM85.8887 40.25C86.2864 40.25 86.6216 40.1719 86.8944 40.0156C87.1699 39.8594 87.3773 39.6577 87.5165 39.4105C87.6586 39.1634 87.7296 38.9034 87.7296 38.6307V37.7102C87.687 37.7614 87.5932 37.8082 87.4483 37.8509C87.3063 37.8906 87.1415 37.9261 86.954 37.9574C86.7694 37.9858 86.589 38.0114 86.4128 38.0341C86.2395 38.054 86.0989 38.071 85.9909 38.0852C85.7296 38.1193 85.4853 38.1747 85.258 38.2514C85.0336 38.3253 84.8517 38.4375 84.7125 38.5881C84.5762 38.7358 84.508 38.9375 84.508 39.1932C84.508 39.5426 84.6373 39.8068 84.8958 39.9858C85.1571 40.1619 85.4881 40.25 85.8887 40.25ZM96.6902 41.1364C96.0595 41.1364 95.5154 40.9972 95.0581 40.7188C94.6035 40.4375 94.2527 40.0455 94.0055 39.5426C93.7612 39.0369 93.639 38.4489 93.639 37.7784C93.639 37.108 93.7612 36.517 94.0055 36.0057C94.2527 35.4915 94.5964 35.0909 95.0368 34.804C95.4799 34.5142 95.997 34.3693 96.5879 34.3693C96.9288 34.3693 97.2654 34.4261 97.5978 34.5398C97.9302 34.6534 98.2328 34.8381 98.5055 35.0938C98.7782 35.3466 98.9956 35.6818 99.1575 36.0994C99.3194 36.517 99.4004 37.0312 99.4004 37.642V38.0682H94.3549V37.1989H98.3777C98.3777 36.8295 98.3038 36.5 98.1561 36.2102C98.0112 35.9205 97.8038 35.6918 97.5339 35.5241C97.2669 35.3565 96.9515 35.2727 96.5879 35.2727C96.1873 35.2727 95.8407 35.3722 95.5481 35.571C95.2583 35.767 95.0353 36.0227 94.8791 36.3381C94.7228 36.6534 94.6447 36.9915 94.6447 37.3523V37.9318C94.6447 38.4261 94.7299 38.8452 94.9004 39.1889C95.0737 39.5298 95.3137 39.7898 95.6206 39.9688C95.9274 40.1449 96.2839 40.233 96.6902 40.233C96.9544 40.233 97.193 40.196 97.4061 40.1222C97.622 40.0455 97.8081 39.9318 97.9643 39.7812C98.1206 39.6278 98.2413 39.4375 98.3265 39.2102L99.2981 39.483C99.1958 39.8125 99.024 40.1023 98.7825 40.3523C98.541 40.5994 98.2427 40.7926 97.8876 40.9318C97.5325 41.0682 97.1333 41.1364 96.6902 41.1364ZM104.442 41V32.2727H107.39C108.075 32.2727 108.635 32.3963 109.069 32.6435C109.507 32.8878 109.831 33.2188 110.041 33.6364C110.251 34.054 110.356 34.5199 110.356 35.0341C110.356 35.5483 110.251 36.0156 110.041 36.4361C109.834 36.8565 109.513 37.1918 109.078 37.4418C108.643 37.6889 108.086 37.8125 107.407 37.8125H105.294V36.875H107.373C107.842 36.875 108.219 36.794 108.503 36.6321C108.787 36.4702 108.993 36.2514 109.121 35.9759C109.251 35.6974 109.317 35.3835 109.317 35.0341C109.317 34.6847 109.251 34.3722 109.121 34.0966C108.993 33.821 108.785 33.6051 108.498 33.4489C108.211 33.2898 107.831 33.2102 107.356 33.2102H105.498V41H104.442ZM111.922 41V34.4545H112.894V35.4432H112.962C113.081 35.1193 113.297 34.8565 113.61 34.6548C113.922 34.4531 114.275 34.3523 114.667 34.3523C114.741 34.3523 114.833 34.3537 114.944 34.3565C115.055 34.3594 115.138 34.3636 115.195 34.3693V35.392C115.161 35.3835 115.083 35.3707 114.961 35.3537C114.841 35.3338 114.715 35.3239 114.581 35.3239C114.263 35.3239 113.979 35.3906 113.729 35.5241C113.482 35.6548 113.286 35.8366 113.141 36.0696C112.999 36.2997 112.928 36.5625 112.928 36.858V41H111.922ZM118.847 41.1364C118.256 41.1364 117.738 40.9957 117.292 40.7145C116.849 40.4332 116.502 40.0398 116.252 39.5341C116.005 39.0284 115.881 38.4375 115.881 37.7614C115.881 37.0795 116.005 36.4844 116.252 35.9759C116.502 35.4673 116.849 35.0724 117.292 34.7912C117.738 34.5099 118.256 34.3693 118.847 34.3693C119.438 34.3693 119.955 34.5099 120.398 34.7912C120.844 35.0724 121.191 35.4673 121.438 35.9759C121.688 36.4844 121.813 37.0795 121.813 37.7614C121.813 38.4375 121.688 39.0284 121.438 39.5341C121.191 40.0398 120.844 40.4332 120.398 40.7145C119.955 40.9957 119.438 41.1364 118.847 41.1364ZM118.847 40.233C119.296 40.233 119.665 40.1179 119.955 39.8878C120.245 39.6577 120.459 39.3551 120.599 38.9801C120.738 38.6051 120.807 38.1989 120.807 37.7614C120.807 37.3239 120.738 36.9162 120.599 36.5384C120.459 36.1605 120.245 35.8551 119.955 35.6222C119.665 35.3892 119.296 35.2727 118.847 35.2727C118.398 35.2727 118.029 35.3892 117.739 35.6222C117.449 35.8551 117.235 36.1605 117.096 36.5384C116.956 36.9162 116.887 37.3239 116.887 37.7614C116.887 38.1989 116.956 38.6051 117.096 38.9801C117.235 39.3551 117.449 39.6577 117.739 39.8878C118.029 40.1179 118.398 40.233 118.847 40.233ZM125.99 43.5909C125.504 43.5909 125.087 43.5284 124.737 43.4034C124.388 43.2812 124.097 43.1193 123.864 42.9176C123.634 42.7188 123.45 42.5057 123.314 42.2784L124.115 41.7159C124.206 41.8352 124.321 41.9716 124.46 42.125C124.6 42.2812 124.79 42.4162 125.031 42.5298C125.276 42.6463 125.595 42.7045 125.99 42.7045C126.519 42.7045 126.955 42.5767 127.298 42.321C127.642 42.0653 127.814 41.6648 127.814 41.1193V39.7898H127.729C127.655 39.9091 127.55 40.0568 127.414 40.233C127.28 40.4062 127.087 40.5611 126.834 40.6974C126.584 40.831 126.246 40.8977 125.82 40.8977C125.291 40.8977 124.817 40.7727 124.396 40.5227C123.979 40.2727 123.648 39.9091 123.404 39.4318C123.162 38.9545 123.041 38.375 123.041 37.6932C123.041 37.0227 123.159 36.4389 123.395 35.9418C123.631 35.4418 123.959 35.0554 124.379 34.7827C124.8 34.5071 125.286 34.3693 125.837 34.3693C126.263 34.3693 126.601 34.4403 126.851 34.5824C127.104 34.7216 127.297 34.8807 127.431 35.0597C127.567 35.2358 127.672 35.3807 127.746 35.4943H127.848V34.4545H128.82V41.1875C128.82 41.75 128.692 42.2074 128.436 42.5597C128.183 42.9148 127.843 43.1747 127.414 43.3395C126.987 43.5071 126.513 43.5909 125.99 43.5909ZM125.956 39.9943C126.36 39.9943 126.7 39.902 126.979 39.7173C127.257 39.5327 127.469 39.267 127.614 38.9205C127.759 38.5739 127.831 38.1591 127.831 37.6761C127.831 37.2045 127.76 36.7884 127.618 36.4276C127.476 36.0668 127.266 35.7841 126.987 35.5795C126.709 35.375 126.365 35.2727 125.956 35.2727C125.53 35.2727 125.175 35.3807 124.891 35.5966C124.61 35.8125 124.398 36.1023 124.256 36.4659C124.117 36.8295 124.047 37.233 124.047 37.6761C124.047 38.1307 124.118 38.5327 124.26 38.8821C124.405 39.2287 124.618 39.5014 124.899 39.7003C125.183 39.8963 125.536 39.9943 125.956 39.9943ZM130.661 41V34.4545H131.632V35.4432H131.7C131.82 35.1193 132.036 34.8565 132.348 34.6548C132.661 34.4531 133.013 34.3523 133.405 34.3523C133.479 34.3523 133.571 34.3537 133.682 34.3565C133.793 34.3594 133.877 34.3636 133.933 34.3693V35.392C133.899 35.3835 133.821 35.3707 133.699 35.3537C133.58 35.3338 133.453 35.3239 133.32 35.3239C133.002 35.3239 132.718 35.3906 132.468 35.5241C132.22 35.6548 132.024 35.8366 131.879 36.0696C131.737 36.2997 131.666 36.5625 131.666 36.858V41H130.661ZM137.052 41.1534C136.637 41.1534 136.26 41.0753 135.922 40.919C135.584 40.7599 135.316 40.5312 135.117 40.233C134.918 39.9318 134.819 39.5682 134.819 39.142C134.819 38.767 134.893 38.4631 135.04 38.2301C135.188 37.9943 135.385 37.8097 135.633 37.6761C135.88 37.5426 136.153 37.4432 136.451 37.3778C136.752 37.3097 137.055 37.2557 137.358 37.2159C137.756 37.1648 138.079 37.1264 138.326 37.1009C138.576 37.0724 138.758 37.0256 138.871 36.9602C138.988 36.8949 139.046 36.7812 139.046 36.6193V36.5852C139.046 36.1648 138.931 35.8381 138.701 35.6051C138.474 35.3722 138.128 35.2557 137.665 35.2557C137.185 35.2557 136.809 35.3608 136.536 35.571C136.263 35.7812 136.072 36.0057 135.961 36.2443L135.006 35.9034C135.177 35.5057 135.404 35.196 135.688 34.9744C135.975 34.75 136.287 34.5937 136.626 34.5057C136.966 34.4148 137.302 34.3693 137.631 34.3693C137.841 34.3693 138.083 34.3949 138.356 34.446C138.631 34.4943 138.897 34.5952 139.153 34.7486C139.411 34.902 139.626 35.1335 139.796 35.4432C139.966 35.7528 140.052 36.1676 140.052 36.6875V41H139.046V40.1136H138.995C138.927 40.2557 138.813 40.4077 138.654 40.5696C138.495 40.7315 138.283 40.8693 138.019 40.983C137.755 41.0966 137.432 41.1534 137.052 41.1534ZM137.205 40.25C137.603 40.25 137.938 40.1719 138.211 40.0156C138.486 39.8594 138.694 39.6577 138.833 39.4105C138.975 39.1634 139.046 38.9034 139.046 38.6307V37.7102C139.003 37.7614 138.91 37.8082 138.765 37.8509C138.623 37.8906 138.458 37.9261 138.27 37.9574C138.086 37.9858 137.905 38.0114 137.729 38.0341C137.556 38.054 137.415 38.071 137.307 38.0852C137.046 38.1193 136.802 38.1747 136.574 38.2514C136.35 38.3253 136.168 38.4375 136.029 38.5881C135.893 38.7358 135.824 38.9375 135.824 39.1932C135.824 39.5426 135.954 39.8068 136.212 39.9858C136.474 40.1619 136.805 40.25 137.205 40.25ZM141.887 41V34.4545H142.859V35.4773H142.944C143.08 35.1278 143.301 34.8565 143.605 34.6634C143.909 34.4673 144.274 34.3693 144.7 34.3693C145.132 34.3693 145.491 34.4673 145.778 34.6634C146.068 34.8565 146.294 35.1278 146.455 35.4773H146.524C146.691 35.1392 146.943 34.8707 147.278 34.6719C147.613 34.4702 148.015 34.3693 148.484 34.3693C149.069 34.3693 149.548 34.5526 149.92 34.919C150.292 35.2827 150.478 35.8494 150.478 36.6193V41H149.472V36.6193C149.472 36.1364 149.34 35.7912 149.076 35.5838C148.812 35.3764 148.501 35.2727 148.143 35.2727C147.683 35.2727 147.326 35.4119 147.073 35.6903C146.82 35.9659 146.694 36.3153 146.694 36.7386V41H145.671V36.517C145.671 36.1449 145.551 35.8452 145.309 35.6179C145.068 35.3878 144.757 35.2727 144.376 35.2727C144.115 35.2727 143.87 35.3423 143.643 35.4815C143.419 35.6207 143.237 35.8139 143.097 36.0611C142.961 36.3054 142.893 36.5881 142.893 36.9091V41H141.887ZM154.243 41.1534C153.828 41.1534 153.452 41.0753 153.114 40.919C152.776 40.7599 152.507 40.5312 152.308 40.233C152.11 39.9318 152.01 39.5682 152.01 39.142C152.01 38.767 152.084 38.4631 152.232 38.2301C152.379 37.9943 152.577 37.8097 152.824 37.6761C153.071 37.5426 153.344 37.4432 153.642 37.3778C153.943 37.3097 154.246 37.2557 154.55 37.2159C154.948 37.1648 155.27 37.1264 155.517 37.1009C155.767 37.0724 155.949 37.0256 156.063 36.9602C156.179 36.8949 156.237 36.7812 156.237 36.6193V36.5852C156.237 36.1648 156.122 35.8381 155.892 35.6051C155.665 35.3722 155.32 35.2557 154.857 35.2557C154.377 35.2557 154 35.3608 153.727 35.571C153.455 35.7812 153.263 36.0057 153.152 36.2443L152.198 35.9034C152.368 35.5057 152.595 35.196 152.879 34.9744C153.166 34.75 153.479 34.5937 153.817 34.5057C154.158 34.4148 154.493 34.3693 154.823 34.3693C155.033 34.3693 155.274 34.3949 155.547 34.446C155.823 34.4943 156.088 34.5952 156.344 34.7486C156.602 34.902 156.817 35.1335 156.987 35.4432C157.158 35.7528 157.243 36.1676 157.243 36.6875V41H156.237V40.1136H156.186C156.118 40.2557 156.004 40.4077 155.845 40.5696C155.686 40.7315 155.475 40.8693 155.21 40.983C154.946 41.0966 154.624 41.1534 154.243 41.1534ZM154.396 40.25C154.794 40.25 155.129 40.1719 155.402 40.0156C155.678 39.8594 155.885 39.6577 156.024 39.4105C156.166 39.1634 156.237 38.9034 156.237 38.6307V37.7102C156.195 37.7614 156.101 37.8082 155.956 37.8509C155.814 37.8906 155.649 37.9261 155.462 37.9574C155.277 37.9858 155.097 38.0114 154.921 38.0341C154.747 38.054 154.607 38.071 154.499 38.0852C154.237 38.1193 153.993 38.1747 153.766 38.2514C153.541 38.3253 153.36 38.4375 153.22 38.5881C153.084 38.7358 153.016 38.9375 153.016 39.1932C153.016 39.5426 153.145 39.8068 153.404 39.9858C153.665 40.1619 153.996 40.25 154.396 40.25ZM161.738 41.1364C161.124 41.1364 160.596 40.9915 160.153 40.7017C159.709 40.4119 159.368 40.0128 159.13 39.5043C158.891 38.9957 158.772 38.4148 158.772 37.7614C158.772 37.0966 158.894 36.5099 159.138 36.0014C159.385 35.4901 159.729 35.0909 160.17 34.804C160.613 34.5142 161.13 34.3693 161.721 34.3693C162.181 34.3693 162.596 34.4545 162.965 34.625C163.334 34.7955 163.637 35.0341 163.873 35.3409C164.108 35.6477 164.255 36.0057 164.312 36.4148H163.306C163.229 36.1165 163.059 35.8523 162.795 35.6222C162.533 35.3892 162.181 35.2727 161.738 35.2727C161.346 35.2727 161.002 35.375 160.706 35.5795C160.414 35.7812 160.185 36.0668 160.02 36.4361C159.858 36.8026 159.778 37.233 159.778 37.7273C159.778 38.233 159.857 38.6733 160.016 39.0483C160.178 39.4233 160.405 39.7145 160.698 39.9219C160.993 40.1293 161.34 40.233 161.738 40.233C161.999 40.233 162.236 40.1875 162.449 40.0966C162.662 40.0057 162.843 39.875 162.991 39.7045C163.138 39.5341 163.243 39.3295 163.306 39.0909H164.312C164.255 39.4773 164.114 39.8253 163.89 40.1349C163.668 40.4418 163.374 40.6861 163.008 40.8679C162.644 41.0469 162.221 41.1364 161.738 41.1364ZM161.26 40.9659H162.096L162.028 41.3068C162.249 41.3409 162.452 41.4332 162.637 41.5838C162.822 41.7372 162.914 41.9801 162.914 42.3125C162.914 42.679 162.762 42.9773 162.458 43.2074C162.157 43.4403 161.712 43.5568 161.124 43.5568L161.09 42.892C161.354 42.892 161.573 42.8494 161.746 42.7642C161.922 42.6818 162.01 42.5426 162.01 42.3466C162.01 42.1506 161.938 42.017 161.793 41.946C161.648 41.875 161.414 41.8267 161.09 41.8011L161.26 40.9659ZM167.708 41.1534C167.293 41.1534 166.917 41.0753 166.579 40.919C166.241 40.7599 165.972 40.5312 165.773 40.233C165.574 39.9318 165.475 39.5682 165.475 39.142C165.475 38.767 165.549 38.4631 165.697 38.2301C165.844 37.9943 166.042 37.8097 166.289 37.6761C166.536 37.5426 166.809 37.4432 167.107 37.3778C167.408 37.3097 167.711 37.2557 168.015 37.2159C168.412 37.1648 168.735 37.1264 168.982 37.1009C169.232 37.0724 169.414 37.0256 169.528 36.9602C169.644 36.8949 169.702 36.7812 169.702 36.6193V36.5852C169.702 36.1648 169.587 35.8381 169.357 35.6051C169.13 35.3722 168.785 35.2557 168.322 35.2557C167.841 35.2557 167.465 35.3608 167.192 35.571C166.92 35.7812 166.728 36.0057 166.617 36.2443L165.662 35.9034C165.833 35.5057 166.06 35.196 166.344 34.9744C166.631 34.75 166.944 34.5937 167.282 34.5057C167.623 34.4148 167.958 34.3693 168.287 34.3693C168.498 34.3693 168.739 34.3949 169.012 34.446C169.287 34.4943 169.553 34.5952 169.809 34.7486C170.067 34.902 170.282 35.1335 170.452 35.4432C170.623 35.7528 170.708 36.1676 170.708 36.6875V41H169.702V40.1136H169.651C169.583 40.2557 169.469 40.4077 169.31 40.5696C169.151 40.7315 168.939 40.8693 168.675 40.983C168.411 41.0966 168.089 41.1534 167.708 41.1534ZM167.861 40.25C168.259 40.25 168.594 40.1719 168.867 40.0156C169.143 39.8594 169.35 39.6577 169.489 39.4105C169.631 39.1634 169.702 38.9034 169.702 38.6307V37.7102C169.66 37.7614 169.566 37.8082 169.421 37.8509C169.279 37.8906 169.114 37.9261 168.927 37.9574C168.742 37.9858 168.562 38.0114 168.385 38.0341C168.212 38.054 168.072 38.071 167.964 38.0852C167.702 38.1193 167.458 38.1747 167.231 38.2514C167.006 38.3253 166.824 38.4375 166.685 38.5881C166.549 38.7358 166.481 38.9375 166.481 39.1932C166.481 39.5426 166.61 39.8068 166.868 39.9858C167.13 40.1619 167.461 40.25 167.861 40.25ZM167.043 33.6705L166.259 33.6364C166.259 33.2017 166.383 32.8466 166.63 32.571C166.88 32.2926 167.188 32.1534 167.555 32.1534C167.716 32.1534 167.86 32.1818 167.985 32.2386C168.11 32.2926 168.229 32.3551 168.343 32.4261C168.456 32.4972 168.573 32.5611 168.692 32.6179C168.814 32.6719 168.952 32.6989 169.106 32.6989C169.268 32.6989 169.404 32.6364 169.515 32.5114C169.628 32.3835 169.685 32.2301 169.685 32.0511L170.452 32.1193C170.452 32.5625 170.327 32.9148 170.077 33.1761C169.83 33.4375 169.523 33.5682 169.157 33.5682C168.961 33.5682 168.799 33.5412 168.671 33.4872C168.543 33.4304 168.43 33.3665 168.33 33.2955C168.231 33.2244 168.126 33.1619 168.015 33.108C167.904 33.0511 167.768 33.0227 167.606 33.0227C167.444 33.0227 167.309 33.0866 167.201 33.2145C167.096 33.3395 167.043 33.4915 167.043 33.6705ZM175.203 41.1364C174.612 41.1364 174.093 40.9957 173.647 40.7145C173.204 40.4332 172.857 40.0398 172.607 39.5341C172.36 39.0284 172.237 38.4375 172.237 37.7614C172.237 37.0795 172.36 36.4844 172.607 35.9759C172.857 35.4673 173.204 35.0724 173.647 34.7912C174.093 34.5099 174.612 34.3693 175.203 34.3693C175.794 34.3693 176.311 34.5099 176.754 34.7912C177.2 35.0724 177.546 35.4673 177.794 35.9759C178.044 36.4844 178.169 37.0795 178.169 37.7614C178.169 38.4375 178.044 39.0284 177.794 39.5341C177.546 40.0398 177.2 40.4332 176.754 40.7145C176.311 40.9957 175.794 41.1364 175.203 41.1364ZM175.203 40.233C175.651 40.233 176.021 40.1179 176.311 39.8878C176.6 39.6577 176.815 39.3551 176.954 38.9801C177.093 38.6051 177.163 38.1989 177.163 37.7614C177.163 37.3239 177.093 36.9162 176.954 36.5384C176.815 36.1605 176.6 35.8551 176.311 35.6222C176.021 35.3892 175.651 35.2727 175.203 35.2727C174.754 35.2727 174.384 35.3892 174.095 35.6222C173.805 35.8551 173.59 36.1605 173.451 36.5384C173.312 36.9162 173.242 37.3239 173.242 37.7614C173.242 38.1989 173.312 38.6051 173.451 38.9801C173.59 39.3551 173.805 39.6577 174.095 39.8878C174.384 40.1179 174.754 40.233 175.203 40.233Z" fill="#444444"/>
</svg>
