<svg width="135" height="22" viewBox="0 0 135 22" fill="none" xmlns="http://www.w3.org/2000/svg">
<path fill-rule="evenodd" clip-rule="evenodd" d="M14.1121 12V1.39999H10.416V12H14.1121ZM13.9701 16H10.1368C10.0055 16.3564 9.82787 16.6698 9.604 16.94C9.06274 17.5933 8.21338 17.92 7.05615 17.92C5.89868 17.92 5.04932 17.5933 4.50806 16.94C4.28419 16.6698 4.1066 16.3564 3.9753 16H0.139754C0.37761 17.4132 0.919058 18.5759 1.76392 19.488C2.95874 20.7573 4.72266 21.392 7.05615 21.392C9.3894 21.392 11.144 20.7573 12.3201 19.488C13.1784 18.5759 13.7285 17.4132 13.9701 16ZM0 12V1.39999H3.69604V12H0ZM17.8167 16H21.3445V21H17.8167V16ZM21.5907 12H17.8167V7.112H21.3445V9.18399H21.8486C22.166 8.39999 22.6792 7.79333 23.3887 7.36401C24.0979 6.93466 24.9285 6.72 25.8806 6.72C26.5525 6.72 27.178 6.832 27.7566 7.056C28.354 7.26132 28.8765 7.58801 29.3245 8.03601C29.7725 8.48401 30.1179 9.05334 30.3606 9.74399C30.6026 10.3838 30.7327 11.1359 30.7506 12H27.1034C26.9861 11.5181 26.7839 11.1115 26.4966 10.78C26.0298 10.2013 25.3486 9.91199 24.4526 9.91199C23.4072 9.91199 22.6233 10.2667 22.1006 10.976C21.8842 11.2726 21.7142 11.6139 21.5907 12ZM27.2246 16V21H30.7527V16H27.2246ZM34.1336 16C34.208 16.4732 34.3159 16.9172 34.457 17.332C34.7744 18.2093 35.2039 18.956 35.7451 19.572C36.3052 20.1693 36.9492 20.6267 37.677 20.944C38.4238 21.2427 39.2263 21.392 40.0852 21.392C40.7571 21.392 41.3264 21.3267 41.7932 21.196C42.2783 21.0653 42.6892 20.888 43.0251 20.664C43.3799 20.44 43.6597 20.188 43.865 19.908C44.0891 19.6093 44.2759 19.3013 44.425 18.984H44.9292V21H48.457V16H44.5755C44.4077 16.3691 44.1802 16.7011 43.8931 16.996C43.2212 17.6867 42.3345 18.032 41.2332 18.032C40.1318 18.032 39.2358 17.696 38.5452 17.024C38.2565 16.7274 38.0299 16.3861 37.8653 16H34.1336ZM44.5166 12C44.3558 11.6842 44.1479 11.3988 43.8931 11.144C43.2212 10.4347 42.3345 10.08 41.2332 10.08C40.1318 10.08 39.2358 10.4253 38.5452 11.116C38.2875 11.3736 38.0792 11.6683 37.9204 12H34.165C34.2427 11.5805 34.3494 11.1832 34.4851 10.808C34.821 9.93066 35.269 9.19333 35.8291 8.59601C36.4077 7.98001 37.0703 7.51334 37.8171 7.19598C38.5825 6.87866 39.385 6.72 40.2251 6.72C41.3452 6.72 42.2317 6.93466 42.885 7.36401C43.5383 7.77466 44.0518 8.36267 44.425 9.12799H44.9292V1.39999H48.457V12H44.5166ZM51.7648 16C51.8443 16.3872 51.9486 16.7566 52.0776 17.108C52.4324 18.0227 52.9177 18.7973 53.5337 19.432C54.1682 20.0667 54.915 20.552 55.7737 20.888C56.6323 21.224 57.5842 21.392 58.6296 21.392C59.5442 21.392 60.3376 21.2893 61.0095 21.084C61.7002 20.8787 62.2791 20.6173 62.7456 20.3C63.231 19.9827 63.623 19.6373 63.9216 19.264C64.2202 18.872 64.4536 18.4987 64.6216 18.144L61.5977 16.464C61.3923 16.8933 61.0564 17.2667 60.5896 17.584C60.123 17.8827 59.4509 18.032 58.5737 18.032C58.1257 18.032 57.6963 17.9667 57.2856 17.836C56.8936 17.6867 56.5391 17.4907 56.2217 17.248C55.9229 16.9867 55.6802 16.688 55.4937 16.352C55.4395 16.2376 55.393 16.1202 55.3544 16H51.7648ZM65.265 12C65.2022 11.699 65.1185 11.395 65.0137 11.088C64.7522 10.304 64.3416 9.59467 63.7817 8.95999C63.2217 8.30667 62.5122 7.77466 61.6536 7.36401C60.7949 6.93466 59.7683 6.72 58.5737 6.72C57.603 6.72 56.6882 6.89734 55.8296 7.25201C54.9897 7.58801 54.2522 8.064 53.6177 8.67999C52.9829 9.29599 52.479 10.0427 52.1057 10.92C51.966 11.2655 51.8538 11.6255 51.7692 12H55.3269H61.7839H65.265ZM71.0142 16V21H74.5422V16H71.0142ZM74.5422 12H71.0142V10.472H67.7383V7.112H71.0142V4.25601C71.0142 3.45334 71.2849 2.78134 71.8262 2.23999C72.3674 1.67999 73.0396 1.39999 73.842 1.39999H76.4741V4.76001H75.2981C74.7942 4.76001 74.5422 5.04001 74.5422 5.60001V7.112H82.2422V12H78.7141V10.472H74.5422V12ZM78.7141 16V21H82.2422V16H78.7141ZM86.3948 16V21H89.9226V16H86.3948ZM95.6815 12C95.5642 11.5181 95.362 11.1115 95.0747 10.78C94.6079 10.2013 93.9268 9.91199 93.0308 9.91199C91.9854 9.91199 91.2014 10.2667 90.6787 10.976C90.4623 11.2726 90.2924 11.6139 90.1688 12H86.3948V7.112H89.9226V9.18399H90.4268C90.7441 8.39999 91.2573 7.79333 91.9668 7.36401C92.676 6.93466 93.5066 6.72 94.4587 6.72C95.1306 6.72 95.7561 6.832 96.3347 7.056C96.9321 7.26132 97.4546 7.58801 97.9026 8.03601C98.3506 8.48401 98.696 9.05334 98.9387 9.74399C99.1807 10.3838 99.3108 11.1359 99.3287 12H95.6815ZM95.8027 16V21H99.3308V16H95.8027ZM103.198 16C103.278 16.3872 103.382 16.7566 103.511 17.108C103.866 18.0227 104.351 18.7973 104.967 19.432C105.602 20.0667 106.349 20.552 107.207 20.888C108.066 21.224 109.018 21.392 110.063 21.392C110.978 21.392 111.771 21.2893 112.443 21.084C113.134 20.8787 113.713 20.6173 114.179 20.3C114.665 19.9827 115.057 19.6373 115.355 19.264C115.654 18.872 115.887 18.4987 116.055 18.144L113.031 16.464C112.826 16.8933 112.49 17.2667 112.023 17.584C111.557 17.8827 110.885 18.032 110.007 18.032C109.559 18.032 109.13 17.9667 108.719 17.836C108.327 17.6867 107.973 17.4907 107.655 17.248C107.356 16.9867 107.114 16.688 106.927 16.352C106.873 16.2376 106.827 16.1202 106.788 16H103.198ZM119.856 16C119.931 16.4732 120.039 16.9172 120.18 17.332C120.497 18.2093 120.927 18.956 121.468 19.572C122.028 20.1693 122.672 20.6267 123.4 20.944C124.146 21.2427 124.949 21.392 125.808 21.392C126.48 21.392 127.049 21.3267 127.516 21.196C128.001 21.0653 128.412 20.888 128.748 20.664C129.103 20.44 129.382 20.188 129.588 19.908C129.812 19.6093 129.999 19.3013 130.148 18.984H130.652V21H134.18V16H130.298C130.13 16.3691 129.903 16.7011 129.616 16.996C128.944 17.6867 128.057 18.032 126.956 18.032C125.854 18.032 124.958 17.696 124.268 17.024C123.979 16.7274 123.753 16.3861 123.588 16H119.856ZM123.643 12H119.888C119.965 11.5805 120.072 11.1832 120.208 10.808C120.544 9.93066 120.992 9.19333 121.552 8.59601C122.13 7.98001 122.793 7.51334 123.54 7.19598C124.305 6.87866 125.108 6.72 125.948 6.72C127.068 6.72 127.954 6.93466 128.608 7.36401C129.261 7.77466 129.774 8.36267 130.148 9.12799H130.652V1.39999H134.18V12H130.239C130.078 11.6842 129.871 11.3988 129.616 11.144C128.944 10.4347 128.057 10.08 126.956 10.08C125.854 10.08 124.958 10.4253 124.268 11.116C124.01 11.3736 123.802 11.6683 123.643 12ZM116.699 12H113.218H106.76H103.203C103.287 11.6255 103.4 11.2655 103.539 10.92C103.913 10.0427 104.417 9.29599 105.051 8.67999C105.686 8.064 106.423 7.58801 107.263 7.25201C108.122 6.89734 109.037 6.72 110.007 6.72C111.202 6.72 112.229 6.93466 113.087 7.36401C113.946 7.77466 114.655 8.30667 115.215 8.95999C115.775 9.59467 116.186 10.304 116.447 11.088C116.552 11.395 116.636 11.699 116.699 12ZM78.0142 1.95999C77.8835 2.27734 77.8181 2.61334 77.8181 2.96799C77.8181 3.34134 77.8835 3.68668 78.0142 4.004C78.1636 4.32132 78.3594 4.60132 78.6021 4.84399C78.8447 5.08667 79.1248 5.28265 79.4421 5.43201C79.7595 5.56265 80.1047 5.62799 80.4783 5.62799C80.8328 5.62799 81.1689 5.56265 81.4861 5.43201C81.8223 5.28265 82.1021 5.08667 82.3262 4.84399C82.5688 4.60132 82.7556 4.32132 82.8862 4.004C83.0354 3.68668 83.1101 3.34134 83.1101 2.96799C83.1101 2.23999 82.8489 1.62399 82.3262 1.12C81.8223 0.597321 81.2061 0.335999 80.4783 0.335999C80.1047 0.335999 79.7595 0.410675 79.4421 0.559998C79.1248 0.690674 78.8447 0.877319 78.6021 1.12C78.3594 1.34399 78.1636 1.62399 78.0142 1.95999Z" fill="white"/>
</svg>
