<svg width="378" height="90" viewBox="0 0 378 90" fill="none" xmlns="http://www.w3.org/2000/svg">
<path fill-rule="evenodd" clip-rule="evenodd" d="M0 3C0 1.34315 1.34315 0 3 0H22C23.6569 0 25 1.34315 25 3V22C25 23.2813 25.8032 24.3749 26.9336 24.8049C26.9732 24.82 27 24.8576 27 24.9C27 24.9552 27.0448 25 27.1 25H28H42H68C69.1046 25 70 25.8954 70 27V72C70 73.6569 68.6569 75 67 75H48C46.3431 75 45 73.6569 45 72V53C45 51.3431 43.6569 50 42 50H28H2C0.895431 50 0 49.1046 0 48V3ZM2 53C0.89543 53 0 53.8954 0 55V72C0 73.6569 1.34315 75 3 75H22C23.6569 75 25 73.6569 25 72V55C25 53.8954 24.1046 53 23 53H2ZM70 20C70 21.1046 69.1046 22 68 22H47C45.8954 22 45 21.1046 45 20V3C45 1.34315 46.3431 0 48 0H67C68.6569 0 70 1.34315 70 3V20Z" fill="#D9D9D9"/>
<path fill-rule="evenodd" clip-rule="evenodd" d="M0 3C0 1.34315 1.34315 0 3 0H22C23.6569 0 25 1.34315 25 3V22C25 23.2813 25.8032 24.3749 26.9336 24.8049C26.9732 24.82 27 24.8576 27 24.9C27 24.9552 27.0448 25 27.1 25H28H42H68C69.1046 25 70 25.8954 70 27V72C70 73.6569 68.6569 75 67 75H48C46.3431 75 45 73.6569 45 72V53C45 51.3431 43.6569 50 42 50H28H2C0.895431 50 0 49.1046 0 48V3ZM2 53C0.89543 53 0 53.8954 0 55V72C0 73.6569 1.34315 75 3 75H22C23.6569 75 25 73.6569 25 72V55C25 53.8954 24.1046 53 23 53H2ZM70 20C70 21.1046 69.1046 22 68 22H47C45.8954 22 45 21.1046 45 20V3C45 1.34315 46.3431 0 48 0H67C68.6569 0 70 1.34315 70 3V20Z" fill="url(#paint0_linear_240_372)"/>
<path d="M99.648 75.64C96.704 75.64 94.08 75.192 91.776 74.296C89.472 73.3573 87.5307 72.0987 85.952 70.52C84.416 68.9413 83.2427 67.128 82.432 65.08C81.6213 63.032 81.216 60.8773 81.216 58.616C81.216 55.3733 81.92 52.408 83.328 49.72C84.736 46.9893 86.8053 44.8133 89.536 43.192C92.2667 41.528 95.6373 40.696 99.648 40.696C103.659 40.696 107.029 41.5067 109.76 43.128C112.491 44.7493 114.56 46.8827 115.968 49.528C117.376 52.1733 118.08 55.0533 118.08 58.168C118.08 58.808 118.037 59.4693 117.952 60.152C117.909 60.792 117.845 61.368 117.76 61.88H94.144C94.2293 63.0747 94.5493 64.056 95.104 64.824C95.7013 65.5493 96.4267 66.0827 97.28 66.424C98.176 66.7653 99.0933 66.936 100.032 66.936C101.355 66.936 102.592 66.6373 103.744 66.04C104.939 65.4427 105.728 64.6107 106.112 63.544L116.416 66.488C115.52 68.28 114.261 69.8587 112.64 71.224C111.061 72.5893 109.184 73.6773 107.008 74.488C104.832 75.256 102.379 75.64 99.648 75.64ZM93.888 54.584H105.024C104.896 53.4747 104.576 52.536 104.064 51.768C103.595 51 102.955 50.4027 102.144 49.976C101.376 49.5493 100.48 49.336 99.456 49.336C98.432 49.336 97.5147 49.5493 96.704 49.976C95.936 50.4027 95.296 51 94.784 51.768C94.3147 52.536 94.016 53.4747 93.888 54.584ZM144.92 51.704C142.573 51.704 140.44 51.96 138.52 52.472C136.6 52.984 135.171 53.8373 134.232 55.032V75H122.072V41.336H133.208V47.736C134.403 45.4747 135.896 43.7467 137.688 42.552C139.48 41.3147 141.379 40.696 143.384 40.696C143.853 40.696 144.173 40.696 144.344 40.696C144.557 40.696 144.749 40.7173 144.92 40.76V51.704ZM182.553 75H170.393V56.056C170.393 54.392 170.009 53.1973 169.241 52.472C168.516 51.704 167.662 51.32 166.681 51.32C165.998 51.32 165.273 51.5333 164.505 51.96C163.737 52.344 163.033 52.8987 162.393 53.624C161.753 54.3493 161.241 55.1813 160.857 56.12V75H148.697V41.336H159.641V46.328C160.452 45.0907 161.476 44.0667 162.713 43.256C163.95 42.4027 165.38 41.7627 167.001 41.336C168.622 40.9093 170.393 40.696 172.313 40.696C174.617 40.696 176.452 41.1013 177.817 41.912C179.182 42.7227 180.206 43.768 180.889 45.048C181.572 46.328 182.02 47.672 182.233 49.08C182.446 50.4453 182.553 51.704 182.553 52.856V75ZM186.591 64.824C186.591 62.5627 187.21 60.5787 188.447 58.872C189.684 57.1227 191.391 55.7573 193.567 54.776C195.786 53.7947 198.303 53.304 201.119 53.304C202.442 53.304 203.679 53.4107 204.831 53.624C206.026 53.8373 207.05 54.1573 207.903 54.584V53.56C207.903 51.9813 207.434 50.808 206.495 50.04C205.599 49.272 204.127 48.888 202.079 48.888C200.202 48.888 198.431 49.208 196.767 49.848C195.146 50.4453 193.439 51.3413 191.647 52.536L188.127 44.984C190.388 43.5333 192.756 42.4667 195.231 41.784C197.748 41.0587 200.436 40.696 203.295 40.696C208.628 40.696 212.746 41.912 215.647 44.344C218.591 46.7333 220.063 50.296 220.063 55.032V61.56C220.063 62.712 220.234 63.5227 220.575 63.992C220.916 64.4187 221.514 64.6747 222.367 64.76V75C221.386 75.2133 220.447 75.3627 219.551 75.448C218.698 75.576 217.93 75.64 217.247 75.64C215.071 75.64 213.407 75.256 212.255 74.488C211.146 73.6773 210.42 72.504 210.079 70.968L209.823 69.752C208.33 71.672 206.602 73.144 204.639 74.168C202.676 75.1493 200.586 75.64 198.367 75.64C196.148 75.64 194.143 75.1707 192.351 74.232C190.559 73.2933 189.151 72.0133 188.127 70.392C187.103 68.728 186.591 66.872 186.591 64.824ZM206.303 65.656C206.772 65.3147 207.156 64.952 207.455 64.568C207.754 64.1413 207.903 63.7147 207.903 63.288V60.792C207.22 60.536 206.431 60.3227 205.535 60.152C204.682 59.9813 203.914 59.896 203.231 59.896C201.78 59.896 200.543 60.2587 199.519 60.984C198.538 61.7093 198.047 62.6267 198.047 63.736C198.047 64.3333 198.218 64.888 198.559 65.4C198.9 65.8693 199.37 66.2533 199.967 66.552C200.564 66.808 201.247 66.936 202.015 66.936C202.74 66.936 203.487 66.8293 204.255 66.616C205.066 66.36 205.748 66.04 206.303 65.656ZM260.616 75H248.456V56.056C248.456 54.392 248.072 53.1973 247.304 52.472C246.578 51.704 245.725 51.32 244.744 51.32C244.061 51.32 243.336 51.5333 242.568 51.96C241.8 52.344 241.096 52.8987 240.456 53.624C239.816 54.3493 239.304 55.1813 238.92 56.12V75H226.76V41.336H237.704V46.328C238.514 45.0907 239.538 44.0667 240.776 43.256C242.013 42.4027 243.442 41.7627 245.064 41.336C246.685 40.9093 248.456 40.696 250.376 40.696C252.68 40.696 254.514 41.1013 255.88 41.912C257.245 42.7227 258.269 43.768 258.951 45.048C259.634 46.328 260.082 47.672 260.296 49.08C260.509 50.4453 260.616 51.704 260.616 52.856V75ZM264.718 58.104C264.718 54.776 265.336 51.8107 266.574 49.208C267.854 46.5627 269.603 44.4933 271.822 43C274.04 41.464 276.579 40.696 279.438 40.696C281.614 40.696 283.619 41.208 285.454 42.232C287.288 43.2133 288.675 44.5787 289.614 46.328V28.28H301.774V61.56C301.774 62.712 301.944 63.5227 302.286 63.992C302.627 64.4187 303.224 64.6747 304.078 64.76V75C301.987 75.4267 300.28 75.64 298.958 75.64C296.91 75.64 295.288 75.256 294.094 74.488C292.899 73.72 292.131 72.5467 291.79 70.968L291.534 69.752C290.382 71.8 288.824 73.2933 286.862 74.232C284.899 75.1707 282.808 75.64 280.59 75.64C278.286 75.64 276.152 75.2133 274.19 74.36C272.27 73.5067 270.584 72.312 269.134 70.776C267.726 69.1973 266.638 67.3413 265.87 65.208C265.102 63.032 264.718 60.664 264.718 58.104ZM289.678 61.944V55.928C289.294 54.9467 288.76 54.0933 288.078 53.368C287.438 52.6 286.712 52.0027 285.902 51.576C285.091 51.1493 284.259 50.936 283.406 50.936C282.51 50.936 281.678 51.128 280.91 51.512C280.184 51.896 279.544 52.4293 278.99 53.112C278.435 53.7947 278.008 54.584 277.71 55.48C277.411 56.376 277.262 57.336 277.262 58.36C277.262 59.4267 277.411 60.3867 277.71 61.24C278.051 62.0933 278.52 62.84 279.118 63.48C279.715 64.0773 280.419 64.5467 281.23 64.888C282.04 65.2293 282.936 65.4 283.918 65.4C284.515 65.4 285.07 65.336 285.582 65.208C286.094 65.0373 286.584 64.824 287.054 64.568C287.523 64.2693 287.971 63.9067 288.398 63.48C288.867 63.0107 289.294 62.4987 289.678 61.944ZM325.648 75.64C322.704 75.64 320.08 75.192 317.776 74.296C315.472 73.3573 313.531 72.0987 311.952 70.52C310.416 68.9413 309.243 67.128 308.432 65.08C307.621 63.032 307.216 60.8773 307.216 58.616C307.216 55.3733 307.92 52.408 309.328 49.72C310.736 46.9893 312.805 44.8133 315.536 43.192C318.267 41.528 321.637 40.696 325.648 40.696C329.659 40.696 333.029 41.5067 335.76 43.128C338.491 44.7493 340.56 46.8827 341.968 49.528C343.376 52.1733 344.08 55.0533 344.08 58.168C344.08 58.808 344.037 59.4693 343.952 60.152C343.909 60.792 343.845 61.368 343.76 61.88H320.144C320.229 63.0747 320.549 64.056 321.104 64.824C321.701 65.5493 322.427 66.0827 323.28 66.424C324.176 66.7653 325.093 66.936 326.032 66.936C327.355 66.936 328.592 66.6373 329.744 66.04C330.939 65.4427 331.728 64.6107 332.112 63.544L342.416 66.488C341.52 68.28 340.261 69.8587 338.64 71.224C337.061 72.5893 335.184 73.6773 333.008 74.488C330.832 75.256 328.379 75.64 325.648 75.64ZM319.888 54.584H331.024C330.896 53.4747 330.576 52.536 330.064 51.768C329.595 51 328.955 50.4027 328.144 49.976C327.376 49.5493 326.48 49.336 325.456 49.336C324.432 49.336 323.515 49.5493 322.704 49.976C321.936 50.4027 321.296 51 320.784 51.768C320.315 52.536 320.016 53.4747 319.888 54.584ZM361.576 75.64C358.632 75.64 355.731 75.1707 352.872 74.232C350.056 73.2507 347.667 71.8427 345.704 70.008L349.864 62.52C351.955 63.8853 353.96 64.952 355.88 65.72C357.843 66.488 359.613 66.872 361.192 66.872C362.088 66.872 362.749 66.7653 363.176 66.552C363.603 66.296 363.816 65.8907 363.816 65.336C363.816 64.952 363.667 64.632 363.368 64.376C363.069 64.12 362.579 63.864 361.896 63.608C361.256 63.352 360.424 63.0747 359.4 62.776C356.755 61.8373 354.536 60.9627 352.744 60.152C350.995 59.3413 349.672 58.36 348.776 57.208C347.923 56.0133 347.496 54.4347 347.496 52.472C347.496 50.168 348.072 48.1413 349.224 46.392C350.376 44.6 352.019 43.192 354.152 42.168C356.328 41.144 358.931 40.632 361.96 40.632C364.221 40.632 366.483 40.9947 368.744 41.72C371.048 42.4027 373.267 43.6613 375.4 45.496L370.792 52.92C368.659 51.5973 366.845 50.6587 365.352 50.104C363.901 49.5493 362.6 49.272 361.448 49.272C360.893 49.272 360.403 49.336 359.976 49.464C359.592 49.592 359.293 49.784 359.08 50.04C358.867 50.296 358.76 50.6373 358.76 51.064C358.76 51.4907 358.909 51.8533 359.208 52.152C359.507 52.408 359.976 52.664 360.616 52.92C361.256 53.1333 362.067 53.3893 363.048 53.688C365.949 54.5413 368.317 55.416 370.152 56.312C371.987 57.1653 373.331 58.2107 374.184 59.448C375.08 60.6853 375.528 62.3067 375.528 64.312C375.528 67.8533 374.269 70.6267 371.752 72.632C369.277 74.6373 365.885 75.64 361.576 75.64Z" fill="url(#paint1_linear_240_372)"/>
<defs>
<linearGradient id="paint0_linear_240_372" x1="61" y1="-18" x2="62" y2="90" gradientUnits="userSpaceOnUse">
<stop stop-color="#BA49FF"/>
<stop offset="1" stop-color="#4915B8"/>
</linearGradient>
<linearGradient id="paint1_linear_240_372" x1="229" y1="15" x2="229" y2="90" gradientUnits="userSpaceOnUse">
<stop stop-color="#BA49FF"/>
<stop offset="1" stop-color="#4915B8"/>
</linearGradient>
</defs>
</svg>
