<svg width="31" height="30" viewBox="0 0 31 30" fill="none" xmlns="http://www.w3.org/2000/svg">
<rect y="15" width="31" height="2" rx="1" fill="#856ABD"/>
<path d="M6 9V18.28C6 19.4133 6.26 20.2733 6.78 20.86C7.31333 21.4333 8.09333 21.72 9.12 21.72C10.1467 21.72 10.92 21.4333 11.44 20.86C11.9733 20.2733 12.24 19.4133 12.24 18.28V9H13.92V18.28C13.92 19.9067 13.4933 21.1467 12.64 22C11.7867 22.8533 10.6133 23.28 9.12 23.28C7.62667 23.28 6.45333 22.8533 5.6 22C4.74667 21.1467 4.32 19.9067 4.32 18.28V9H6ZM24.1061 22.28H24.3461V9H26.0261V23H22.6661L18.6261 9.72H18.3861V23H16.7061V9H20.0661L24.1061 22.28Z" fill="white"/>
<path d="M11 15H15V17H11V15Z" fill="#856ABD"/>
<path d="M20 15H24V17H20V15Z" fill="#856ABD"/>
</svg>
