<svg width="125" height="30" viewBox="0 0 125 30" fill="none" xmlns="http://www.w3.org/2000/svg">
<rect y="15" width="125" height="2" rx="1" fill="#856ABD"/>
<path d="M10 9V18.28C10 19.4133 10.26 20.2733 10.78 20.86C11.3133 21.4333 12.0933 21.72 13.12 21.72C14.1467 21.72 14.92 21.4333 15.44 20.86C15.9733 20.2733 16.24 19.4133 16.24 18.28V9H17.92V18.28C17.92 19.9067 17.4933 21.1467 16.64 22C15.7867 22.8533 14.6133 23.28 13.12 23.28C11.6267 23.28 10.4533 22.8533 9.6 22C8.74667 21.1467 8.32 19.9067 8.32 18.28V9H10ZM28.1061 22.28H28.3461V9H30.0261V23H26.6661L22.6261 9.72H22.3861V23H20.7061V9H24.0661L28.1061 22.28ZM32.9522 9H37.5522C39.2855 9 40.5522 9.41333 41.3522 10.24C42.1522 11.0667 42.5522 12.3867 42.5522 14.2V17.8C42.5522 19.6133 42.1522 20.9333 41.3522 21.76C40.5522 22.5867 39.2855 23 37.5522 23H32.9522V21.42H34.1522V10.56H32.9522V9ZM37.3122 21.44C37.9255 21.44 38.4522 21.38 38.8922 21.26C39.3455 21.14 39.7189 20.94 40.0122 20.66C40.3055 20.3667 40.5189 19.98 40.6522 19.5C40.7989 19.02 40.8722 18.4133 40.8722 17.68V14.32C40.8722 13.5867 40.7989 12.98 40.6522 12.5C40.5189 12.02 40.3055 11.64 40.0122 11.36C39.7189 11.0667 39.3455 10.86 38.8922 10.74C38.4522 10.62 37.9255 10.56 37.3122 10.56H35.8322V21.44H37.3122ZM45.6183 9H54.0983V10.56H47.2983V15.2H53.9783V16.76H47.2983V21.44H54.2183V23H45.6183V9ZM57.8844 9H66.4844V10.56H59.5644V15.2H66.3644V16.76H59.5644V23H57.8844V9ZM69.9105 9H78.7905V10.56H75.1905V21.44H78.7905V23H69.9105V21.44H73.5105V10.56H69.9105V9ZM89.3366 22.28H89.5766V9H91.2566V23H87.8966L83.8566 9.72H83.6166V23H81.9366V9H85.2966L89.3366 22.28ZM94.6027 9H103.083V10.56H96.2827V15.2H102.963V16.76H96.2827V21.44H103.203V23H94.6027V9ZM106.429 9H111.029C112.762 9 114.029 9.41333 114.829 10.24C115.629 11.0667 116.029 12.3867 116.029 14.2V17.8C116.029 19.6133 115.629 20.9333 114.829 21.76C114.029 22.5867 112.762 23 111.029 23H106.429V21.42H107.629V10.56H106.429V9ZM110.789 21.44C111.402 21.44 111.929 21.38 112.369 21.26C112.822 21.14 113.195 20.94 113.489 20.66C113.782 20.3667 113.995 19.98 114.129 19.5C114.275 19.02 114.349 18.4133 114.349 17.68V14.32C114.349 13.5867 114.275 12.98 114.129 12.5C113.995 12.02 113.782 11.64 113.489 11.36C113.195 11.0667 112.822 10.86 112.369 10.74C111.929 10.62 111.402 10.56 110.789 10.56H109.309V21.44H110.789Z" fill="white"/>
<path d="M15 15H19V17H15V15Z" fill="#856ABD"/>
<path d="M45 15H55V17H45V15Z" fill="#856ABD"/>
<path d="M57 15H67V17H57V15Z" fill="#856ABD"/>
<path d="M72 15H76V17H72V15Z" fill="#856ABD"/>
<path d="M85 15H89V17H85V15Z" fill="#856ABD"/>
<path d="M113 15H117V17H113V15Z" fill="#856ABD"/>
<path d="M93 15H105V17H93V15Z" fill="#856ABD"/>
<path d="M32 15H36V17H32V15Z" fill="#856ABD"/>
<path d="M24 15H28V17H24V15Z" fill="#856ABD"/>
</svg>
